;PTH Drill file created by EasyEDA 
M48
INCH,LZ,00.0000
;Holesize 1 = 0.028 INCH
T01C0.028
;Holesize 2 = 0.035 INCH
T02C0.035
;Holesize 3 = 0.036 INCH
T03C0.036
%
G05
G90
T01
X+001600Y+015799
X+001600Y+014799
X+001600Y+013799
X+001600Y+012799
X+004600Y+012799
X+004600Y+013799
X+004600Y+014799
X+004600Y+015799
T02
X+009000Y+017499
X+009000Y+016499
X+007900Y+017499
X+007900Y+016499
X+007900Y+015499
X+007900Y+014499
X+007900Y+013499
X+007900Y+012499
X+007900Y+011499
X+007900Y+010499
X+009600Y+000900
X+008600Y+000900
X+007600Y+000900
X+006600Y+000900
X+005600Y+000900
X+004600Y+000900
X+001000Y+019900
X+002000Y+019900
X+003000Y+019900
X+004000Y+019900
X+005000Y+019900
X+006000Y+019900
X+007000Y+019900
X+008000Y+019900
T03
X+001400Y+002000
X+002400Y+002000
M30
