G04 ---------------------------- Layer name :BOTTOM SILK LAYER*
G04 EasyEDA v5.8.22, Sun, 13 Jan 2019 10:54:29 GMT*
G04 0d4c4f045a714df3bf040a356c4a61dc*
G04 Gerber Generator version 0.2*
G04 Scale: 100 percent, Rotated: No, Reflected: No *
G04 Dimensions in inches *
G04 leading zeros omitted , absolute positions ,2 integer and 4 decimal *
%FSLAX24Y24*%
%MOIN*%
G90*
G70D02*

%ADD17C,0.008000*%

%LPD*%

%LPD*%
G36*
G01X8733Y4440D02*
G01X8703Y4439D01*
G01X8674Y4440D01*
G01X8644Y4440D01*
G01X8614Y4441D01*
G01X8583Y4443D01*
G01X8553Y4444D01*
G01X8523Y4447D01*
G01X8494Y4450D01*
G01X8466Y4453D01*
G01X8438Y4456D01*
G01X8411Y4461D01*
G01X8384Y4465D01*
G01X8358Y4470D01*
G01X8332Y4475D01*
G01X8307Y4481D01*
G01X8282Y4487D01*
G01X8257Y4494D01*
G01X8234Y4501D01*
G01X8211Y4509D01*
G01X8188Y4517D01*
G01X8166Y4525D01*
G01X8144Y4534D01*
G01X8123Y4543D01*
G01X8102Y4553D01*
G01X8082Y4563D01*
G01X8063Y4573D01*
G01X8044Y4584D01*
G01X8026Y4595D01*
G01X8008Y4607D01*
G01X7990Y4619D01*
G01X7973Y4632D01*
G01X7957Y4645D01*
G01X7941Y4658D01*
G01X7926Y4672D01*
G01X7911Y4686D01*
G01X7897Y4701D01*
G01X7884Y4716D01*
G01X7871Y4732D01*
G01X7858Y4748D01*
G01X7846Y4764D01*
G01X7835Y4780D01*
G01X7824Y4798D01*
G01X7814Y4815D01*
G01X7804Y4833D01*
G01X7795Y4851D01*
G01X7786Y4870D01*
G01X7778Y4889D01*
G01X7771Y4909D01*
G01X7764Y4928D01*
G01X7757Y4949D01*
G01X7751Y4970D01*
G01X7746Y4991D01*
G01X7741Y5012D01*
G01X7737Y5034D01*
G01X7733Y5057D01*
G01X7730Y5079D01*
G01X7728Y5102D01*
G01X7726Y5126D01*
G01X7725Y5150D01*
G01X7724Y5174D01*
G01X7724Y5198D01*
G01X7724Y5226D01*
G01X7726Y5255D01*
G01X7727Y5284D01*
G01X7730Y5314D01*
G01X7734Y5344D01*
G01X7737Y5373D01*
G01X7742Y5401D01*
G01X7747Y5429D01*
G01X7752Y5455D01*
G01X7757Y5478D01*
G01X7763Y5500D01*
G01X7769Y5519D01*
G01X7777Y5539D01*
G01X7785Y5559D01*
G01X7794Y5579D01*
G01X7804Y5598D01*
G01X7814Y5617D01*
G01X7825Y5636D01*
G01X7836Y5654D01*
G01X7848Y5672D01*
G01X7860Y5689D01*
G01X7873Y5706D01*
G01X7887Y5722D01*
G01X7901Y5738D01*
G01X7916Y5754D01*
G01X7931Y5769D01*
G01X7947Y5784D01*
G01X7964Y5798D01*
G01X7981Y5812D01*
G01X7999Y5825D01*
G01X8017Y5838D01*
G01X8036Y5851D01*
G01X8055Y5863D01*
G01X8075Y5875D01*
G01X8096Y5886D01*
G01X8117Y5897D01*
G01X8139Y5907D01*
G01X8160Y5917D01*
G01X8183Y5926D01*
G01X8206Y5936D01*
G01X8230Y5944D01*
G01X8255Y5953D01*
G01X8280Y5960D01*
G01X8305Y5967D01*
G01X8331Y5974D01*
G01X8357Y5980D01*
G01X8384Y5986D01*
G01X8411Y5992D01*
G01X8439Y5997D01*
G01X8468Y6001D01*
G01X8497Y6005D01*
G01X8527Y6009D01*
G01X8557Y6012D01*
G01X8587Y6015D01*
G01X8618Y6017D01*
G01X8650Y6019D01*
G01X8682Y6020D01*
G01X8715Y6021D01*
G01X8746Y6022D01*
G01X8777Y6021D01*
G01X8808Y6021D01*
G01X8838Y6020D01*
G01X8868Y6019D01*
G01X8897Y6017D01*
G01X8925Y6014D01*
G01X8953Y6011D01*
G01X8981Y6008D01*
G01X9008Y6005D01*
G01X9034Y6000D01*
G01X9060Y5996D01*
G01X9085Y5990D01*
G01X9110Y5985D01*
G01X9135Y5978D01*
G01X9159Y5972D01*
G01X9182Y5965D01*
G01X9205Y5957D01*
G01X9227Y5950D01*
G01X9249Y5941D01*
G01X9271Y5932D01*
G01X9291Y5923D01*
G01X9312Y5913D01*
G01X9331Y5903D01*
G01X9351Y5892D01*
G01X9370Y5880D01*
G01X9388Y5869D01*
G01X9406Y5856D01*
G01X9423Y5844D01*
G01X9440Y5830D01*
G01X9456Y5817D01*
G01X9472Y5803D01*
G01X9487Y5788D01*
G01X9502Y5773D01*
G01X9516Y5757D01*
G01X9530Y5741D01*
G01X9543Y5725D01*
G01X9556Y5708D01*
G01X9569Y5690D01*
G01X9581Y5673D01*
G01X9592Y5654D01*
G01X9603Y5635D01*
G01X9614Y5613D01*
G01X9625Y5593D01*
G01X9635Y5573D01*
G01X9643Y5553D01*
G01X9650Y5533D01*
G01X9657Y5513D01*
G01X9663Y5492D01*
G01X9668Y5471D01*
G01X9672Y5449D01*
G01X9675Y5426D01*
G01X9678Y5401D01*
G01X9680Y5375D01*
G01X9681Y5346D01*
G01X9682Y5315D01*
G01X9683Y5282D01*
G01X9684Y5247D01*
G01X9683Y5209D01*
G01X9683Y5175D01*
G01X9682Y5144D01*
G01X9680Y5115D01*
G01X9678Y5088D01*
G01X9676Y5064D01*
G01X9672Y5040D01*
G01X9667Y5019D01*
G01X9662Y4998D01*
G01X9656Y4977D01*
G01X9648Y4957D01*
G01X9640Y4936D01*
G01X9630Y4916D01*
G01X9619Y4894D01*
G01X9606Y4871D01*
G01X9592Y4847D01*
G01X9581Y4828D01*
G01X9570Y4811D01*
G01X9558Y4793D01*
G01X9546Y4776D01*
G01X9533Y4760D01*
G01X9519Y4744D01*
G01X9506Y4728D01*
G01X9492Y4713D01*
G01X9477Y4698D01*
G01X9462Y4683D01*
G01X9447Y4669D01*
G01X9431Y4655D01*
G01X9415Y4642D01*
G01X9398Y4629D01*
G01X9381Y4617D01*
G01X9364Y4605D01*
G01X9346Y4593D01*
G01X9328Y4582D01*
G01X9309Y4571D01*
G01X9290Y4561D01*
G01X9270Y4551D01*
G01X9250Y4542D01*
G01X9230Y4532D01*
G01X9209Y4524D01*
G01X9188Y4516D01*
G01X9166Y4508D01*
G01X9144Y4501D01*
G01X9121Y4494D01*
G01X9098Y4487D01*
G01X9075Y4481D01*
G01X9051Y4475D01*
G01X9027Y4470D01*
G01X9002Y4465D01*
G01X8977Y4461D01*
G01X8952Y4457D01*
G01X8926Y4453D01*
G01X8899Y4450D01*
G01X8872Y4447D01*
G01X8846Y4444D01*
G01X8818Y4443D01*
G01X8790Y4441D01*
G01X8761Y4440D01*
G01X8733Y4440D01*
G37*

%LPC*%
G36*
G01X8694Y4859D02*
G01X8722Y4858D01*
G01X8749Y4858D01*
G01X8776Y4859D01*
G01X8803Y4859D01*
G01X8830Y4861D01*
G01X8856Y4863D01*
G01X8882Y4865D01*
G01X8908Y4868D01*
G01X8933Y4872D01*
G01X8958Y4876D01*
G01X8982Y4881D01*
G01X9005Y4886D01*
G01X9027Y4892D01*
G01X9054Y4900D01*
G01X9082Y4911D01*
G01X9111Y4924D01*
G01X9140Y4938D01*
G01X9168Y4954D01*
G01X9194Y4970D01*
G01X9218Y4986D01*
G01X9239Y5002D01*
G01X9256Y5018D01*
G01X9270Y5032D01*
G01X9283Y5047D01*
G01X9294Y5061D01*
G01X9303Y5077D01*
G01X9310Y5093D01*
G01X9316Y5110D01*
G01X9321Y5128D01*
G01X9324Y5149D01*
G01X9326Y5172D01*
G01X9327Y5197D01*
G01X9328Y5225D01*
G01X9327Y5247D01*
G01X9326Y5268D01*
G01X9323Y5288D01*
G01X9320Y5307D01*
G01X9316Y5326D01*
G01X9311Y5344D01*
G01X9305Y5362D01*
G01X9298Y5379D01*
G01X9290Y5395D01*
G01X9281Y5411D01*
G01X9271Y5426D01*
G01X9260Y5440D01*
G01X9248Y5453D01*
G01X9235Y5467D01*
G01X9221Y5479D01*
G01X9206Y5491D01*
G01X9190Y5502D01*
G01X9173Y5513D01*
G01X9156Y5523D01*
G01X9137Y5532D01*
G01X9117Y5541D01*
G01X9096Y5549D01*
G01X9073Y5557D01*
G01X9050Y5564D01*
G01X9026Y5571D01*
G01X9001Y5576D01*
G01X8975Y5582D01*
G01X8947Y5586D01*
G01X8919Y5590D01*
G01X8889Y5594D01*
G01X8859Y5597D01*
G01X8827Y5600D01*
G01X8794Y5601D01*
G01X8760Y5603D01*
G01X8725Y5603D01*
G01X8689Y5604D01*
G01X8655Y5603D01*
G01X8622Y5603D01*
G01X8590Y5601D01*
G01X8560Y5599D01*
G01X8530Y5597D01*
G01X8501Y5594D01*
G01X8473Y5590D01*
G01X8446Y5586D01*
G01X8420Y5581D01*
G01X8395Y5575D01*
G01X8371Y5569D01*
G01X8348Y5563D01*
G01X8326Y5556D01*
G01X8305Y5548D01*
G01X8284Y5540D01*
G01X8265Y5531D01*
G01X8247Y5522D01*
G01X8230Y5512D01*
G01X8213Y5501D01*
G01X8198Y5490D01*
G01X8183Y5478D01*
G01X8170Y5466D01*
G01X8157Y5453D01*
G01X8145Y5440D01*
G01X8135Y5426D01*
G01X8125Y5411D01*
G01X8116Y5396D01*
G01X8108Y5380D01*
G01X8101Y5364D01*
G01X8095Y5347D01*
G01X8090Y5330D01*
G01X8086Y5311D01*
G01X8083Y5293D01*
G01X8080Y5274D01*
G01X8079Y5254D01*
G01X8078Y5233D01*
G01X8080Y5205D01*
G01X8082Y5176D01*
G01X8087Y5146D01*
G01X8093Y5118D01*
G01X8101Y5091D01*
G01X8109Y5066D01*
G01X8118Y5045D01*
G01X8128Y5028D01*
G01X8136Y5017D01*
G01X8146Y5007D01*
G01X8157Y4997D01*
G01X8170Y4988D01*
G01X8184Y4978D01*
G01X8198Y4969D01*
G01X8214Y4960D01*
G01X8232Y4951D01*
G01X8250Y4943D01*
G01X8269Y4935D01*
G01X8289Y4928D01*
G01X8310Y4921D01*
G01X8332Y4913D01*
G01X8355Y4907D01*
G01X8378Y4901D01*
G01X8403Y4895D01*
G01X8427Y4890D01*
G01X8452Y4885D01*
G01X8478Y4880D01*
G01X8504Y4876D01*
G01X8531Y4872D01*
G01X8557Y4869D01*
G01X8585Y4866D01*
G01X8612Y4863D01*
G01X8639Y4861D01*
G01X8667Y4860D01*
G01X8694Y4859D01*
G37*

%LPD*%
G36*
G01X4450Y4454D02*
G01X4423Y4454D01*
G01X4397Y4455D01*
G01X4370Y4455D01*
G01X4343Y4455D01*
G01X4317Y4456D01*
G01X4290Y4457D01*
G01X4264Y4459D01*
G01X4238Y4460D01*
G01X4211Y4462D01*
G01X4185Y4464D01*
G01X4160Y4466D01*
G01X4134Y4468D01*
G01X4109Y4471D01*
G01X4083Y4474D01*
G01X4058Y4477D01*
G01X4033Y4480D01*
G01X4009Y4483D01*
G01X3984Y4487D01*
G01X3960Y4491D01*
G01X3936Y4495D01*
G01X3913Y4499D01*
G01X3890Y4504D01*
G01X3867Y4508D01*
G01X3844Y4513D01*
G01X3822Y4519D01*
G01X3801Y4524D01*
G01X3779Y4529D01*
G01X3754Y4536D01*
G01X3705Y4550D01*
G01X3681Y4557D01*
G01X3656Y4565D01*
G01X3632Y4573D01*
G01X3608Y4580D01*
G01X3584Y4588D01*
G01X3560Y4597D01*
G01X3537Y4605D01*
G01X3513Y4614D01*
G01X3490Y4623D01*
G01X3466Y4632D01*
G01X3443Y4640D01*
G01X3397Y4659D01*
G01X3374Y4669D01*
G01X3352Y4679D01*
G01X3329Y4689D01*
G01X3306Y4699D01*
G01X3284Y4709D01*
G01X3262Y4720D01*
G01X3240Y4730D01*
G01X3218Y4741D01*
G01X3196Y4753D01*
G01X3175Y4764D01*
G01X3153Y4775D01*
G01X3110Y4798D01*
G01X3089Y4810D01*
G01X3047Y4835D01*
G01X3026Y4847D01*
G01X3006Y4860D01*
G01X2985Y4873D01*
G01X2964Y4886D01*
G01X2924Y4912D01*
G01X2904Y4926D01*
G01X2884Y4939D01*
G01X2864Y4953D01*
G01X2845Y4967D01*
G01X2806Y4995D01*
G01X2787Y5010D01*
G01X2768Y5025D01*
G01X2749Y5040D01*
G01X2730Y5055D01*
G01X2711Y5069D01*
G01X2693Y5085D01*
G01X2675Y5101D01*
G01X2656Y5116D01*
G01X2638Y5132D01*
G01X2620Y5148D01*
G01X2602Y5164D01*
G01X2585Y5180D01*
G01X2567Y5197D01*
G01X2550Y5214D01*
G01X2532Y5230D01*
G01X2515Y5248D01*
G01X2498Y5265D01*
G01X2481Y5282D01*
G01X2448Y5317D01*
G01X2432Y5335D01*
G01X2415Y5353D01*
G01X2399Y5371D01*
G01X2383Y5390D01*
G01X2367Y5408D01*
G01X2352Y5427D01*
G01X2336Y5446D01*
G01X2321Y5465D01*
G01X2305Y5484D01*
G01X2290Y5503D01*
G01X2275Y5523D01*
G01X2260Y5542D01*
G01X2245Y5562D01*
G01X2231Y5582D01*
G01X2216Y5602D01*
G01X2202Y5622D01*
G01X2188Y5642D01*
G01X2174Y5663D01*
G01X2146Y5705D01*
G01X2119Y5747D01*
G01X2106Y5769D01*
G01X2093Y5790D01*
G01X2080Y5812D01*
G01X2067Y5834D01*
G01X2055Y5855D01*
G01X2042Y5878D01*
G01X2030Y5900D01*
G01X2018Y5923D01*
G01X2006Y5945D01*
G01X1993Y5968D01*
G01X1982Y5991D01*
G01X1970Y6014D01*
G01X1959Y6037D01*
G01X1947Y6061D01*
G01X1935Y6086D01*
G01X1923Y6112D01*
G01X1912Y6137D01*
G01X1901Y6161D01*
G01X1890Y6186D01*
G01X1879Y6210D01*
G01X1869Y6234D01*
G01X1859Y6257D01*
G01X1849Y6280D01*
G01X1840Y6303D01*
G01X1831Y6326D01*
G01X1822Y6348D01*
G01X1814Y6371D01*
G01X1806Y6393D01*
G01X1798Y6415D01*
G01X1791Y6438D01*
G01X1784Y6459D01*
G01X1777Y6482D01*
G01X1770Y6503D01*
G01X1764Y6525D01*
G01X1757Y6547D01*
G01X1752Y6569D01*
G01X1746Y6591D01*
G01X1741Y6613D01*
G01X1735Y6635D01*
G01X1731Y6657D01*
G01X1726Y6680D01*
G01X1722Y6702D01*
G01X1718Y6725D01*
G01X1714Y6747D01*
G01X1706Y6794D01*
G01X1703Y6817D01*
G01X1700Y6841D01*
G01X1697Y6865D01*
G01X1694Y6890D01*
G01X1692Y6914D01*
G01X1689Y6939D01*
G01X1688Y6965D01*
G01X1685Y6991D01*
G01X1684Y7017D01*
G01X1682Y7044D01*
G01X1681Y7071D01*
G01X1680Y7098D01*
G01X1678Y7127D01*
G01X1677Y7155D01*
G01X1677Y7185D01*
G01X1676Y7215D01*
G01X1675Y7245D01*
G01X1675Y7276D01*
G01X1675Y7308D01*
G01X1675Y7340D01*
G01X1675Y7411D01*
G01X1675Y7445D01*
G01X1675Y7477D01*
G01X1675Y7509D01*
G01X1676Y7538D01*
G01X1676Y7567D01*
G01X1677Y7595D01*
G01X1678Y7622D01*
G01X1679Y7648D01*
G01X1680Y7673D01*
G01X1681Y7697D01*
G01X1682Y7721D01*
G01X1684Y7744D01*
G01X1686Y7766D01*
G01X1688Y7788D01*
G01X1690Y7809D01*
G01X1692Y7830D01*
G01X1694Y7851D01*
G01X1697Y7871D01*
G01X1700Y7891D01*
G01X1703Y7911D01*
G01X1706Y7931D01*
G01X1709Y7950D01*
G01X1713Y7970D01*
G01X1721Y8010D01*
G01X1725Y8030D01*
G01X1730Y8051D01*
G01X1735Y8072D01*
G01X1740Y8093D01*
G01X1745Y8115D01*
G01X1751Y8137D01*
G01X1757Y8159D01*
G01X1763Y8182D01*
G01X1769Y8204D01*
G01X1776Y8227D01*
G01X1783Y8251D01*
G01X1790Y8274D01*
G01X1798Y8298D01*
G01X1814Y8345D01*
G01X1822Y8369D01*
G01X1831Y8393D01*
G01X1849Y8442D01*
G01X1868Y8490D01*
G01X1888Y8539D01*
G01X1908Y8588D01*
G01X1918Y8612D01*
G01X1929Y8636D01*
G01X1940Y8661D01*
G01X1951Y8685D01*
G01X1973Y8733D01*
G01X1985Y8757D01*
G01X1996Y8781D01*
G01X2008Y8805D01*
G01X2020Y8828D01*
G01X2032Y8851D01*
G01X2044Y8874D01*
G01X2056Y8897D01*
G01X2080Y8942D01*
G01X2093Y8964D01*
G01X2105Y8986D01*
G01X2118Y9008D01*
G01X2130Y9029D01*
G01X2143Y9050D01*
G01X2156Y9071D01*
G01X2168Y9091D01*
G01X2181Y9111D01*
G01X2194Y9131D01*
G01X2204Y9145D01*
G01X2214Y9160D01*
G01X2225Y9176D01*
G01X2236Y9191D01*
G01X2248Y9207D01*
G01X2260Y9223D01*
G01X2272Y9240D01*
G01X2285Y9257D01*
G01X2299Y9273D01*
G01X2313Y9291D01*
G01X2327Y9308D01*
G01X2342Y9326D01*
G01X2357Y9344D01*
G01X2372Y9362D01*
G01X2388Y9380D01*
G01X2404Y9398D01*
G01X2420Y9417D01*
G01X2437Y9435D01*
G01X2453Y9454D01*
G01X2471Y9473D01*
G01X2488Y9492D01*
G01X2506Y9511D01*
G01X2524Y9530D01*
G01X2542Y9550D01*
G01X2560Y9569D01*
G01X2579Y9588D01*
G01X2598Y9607D01*
G01X2636Y9646D01*
G01X2655Y9665D01*
G01X2675Y9685D01*
G01X2714Y9723D01*
G01X2734Y9742D01*
G01X2753Y9761D01*
G01X2773Y9780D01*
G01X2813Y9818D01*
G01X2833Y9836D01*
G01X2874Y9873D01*
G01X2894Y9891D01*
G01X2914Y9909D01*
G01X2934Y9927D01*
G01X2954Y9945D01*
G01X2974Y9962D01*
G01X3014Y9996D01*
G01X3034Y10013D01*
G01X3053Y10029D01*
G01X3073Y10045D01*
G01X3093Y10061D01*
G01X3112Y10076D01*
G01X3131Y10092D01*
G01X3150Y10107D01*
G01X3169Y10121D01*
G01X3200Y10144D01*
G01X3230Y10167D01*
G01X3259Y10189D01*
G01X3286Y10211D01*
G01X3313Y10231D01*
G01X3338Y10250D01*
G01X3361Y10269D01*
G01X3382Y10285D01*
G01X3402Y10301D01*
G01X3419Y10314D01*
G01X3434Y10326D01*
G01X3447Y10337D01*
G01X3457Y10345D01*
G01X3465Y10351D01*
G01X3469Y10356D01*
G01X3471Y10357D01*
G01X3469Y10359D01*
G01X3465Y10364D01*
G01X3457Y10370D01*
G01X3447Y10378D01*
G01X3434Y10389D01*
G01X3419Y10401D01*
G01X3402Y10415D01*
G01X3382Y10430D01*
G01X3361Y10447D01*
G01X3338Y10465D01*
G01X3313Y10484D01*
G01X3286Y10505D01*
G01X3259Y10526D01*
G01X3230Y10548D01*
G01X3200Y10571D01*
G01X3169Y10594D01*
G01X3150Y10609D01*
G01X3131Y10623D01*
G01X3112Y10639D01*
G01X3093Y10654D01*
G01X3073Y10670D01*
G01X3053Y10686D01*
G01X3034Y10703D01*
G01X3014Y10719D01*
G01X2994Y10736D01*
G01X2974Y10753D01*
G01X2934Y10788D01*
G01X2914Y10806D01*
G01X2894Y10824D01*
G01X2874Y10842D01*
G01X2833Y10879D01*
G01X2813Y10897D01*
G01X2773Y10935D01*
G01X2753Y10954D01*
G01X2734Y10973D01*
G01X2714Y10992D01*
G01X2675Y11030D01*
G01X2655Y11050D01*
G01X2636Y11069D01*
G01X2617Y11088D01*
G01X2598Y11108D01*
G01X2579Y11127D01*
G01X2560Y11146D01*
G01X2542Y11166D01*
G01X2524Y11185D01*
G01X2506Y11204D01*
G01X2488Y11223D01*
G01X2471Y11242D01*
G01X2453Y11261D01*
G01X2437Y11280D01*
G01X2420Y11298D01*
G01X2404Y11317D01*
G01X2388Y11335D01*
G01X2372Y11353D01*
G01X2357Y11371D01*
G01X2342Y11389D01*
G01X2327Y11407D01*
G01X2313Y11425D01*
G01X2299Y11442D01*
G01X2285Y11459D01*
G01X2272Y11475D01*
G01X2260Y11492D01*
G01X2248Y11508D01*
G01X2236Y11524D01*
G01X2225Y11540D01*
G01X2214Y11555D01*
G01X2204Y11570D01*
G01X2194Y11584D01*
G01X2181Y11604D01*
G01X2169Y11623D01*
G01X2156Y11644D01*
G01X2143Y11664D01*
G01X2131Y11685D01*
G01X2118Y11706D01*
G01X2106Y11728D01*
G01X2093Y11750D01*
G01X2081Y11771D01*
G01X2057Y11816D01*
G01X2045Y11839D01*
G01X2033Y11862D01*
G01X2021Y11885D01*
G01X2009Y11909D01*
G01X1997Y11932D01*
G01X1975Y11979D01*
G01X1964Y12003D01*
G01X1952Y12027D01*
G01X1931Y12075D01*
G01X1920Y12099D01*
G01X1910Y12123D01*
G01X1900Y12147D01*
G01X1889Y12171D01*
G01X1880Y12195D01*
G01X1870Y12219D01*
G01X1861Y12243D01*
G01X1852Y12267D01*
G01X1843Y12291D01*
G01X1825Y12338D01*
G01X1817Y12361D01*
G01X1809Y12385D01*
G01X1802Y12408D01*
G01X1794Y12430D01*
G01X1787Y12453D01*
G01X1780Y12476D01*
G01X1774Y12498D01*
G01X1767Y12520D01*
G01X1761Y12541D01*
G01X1756Y12563D01*
G01X1751Y12584D01*
G01X1746Y12605D01*
G01X1741Y12626D01*
G01X1736Y12648D01*
G01X1732Y12671D01*
G01X1727Y12694D01*
G01X1723Y12717D01*
G01X1719Y12741D01*
G01X1715Y12766D01*
G01X1711Y12791D01*
G01X1707Y12816D01*
G01X1704Y12842D01*
G01X1701Y12868D01*
G01X1697Y12894D01*
G01X1694Y12921D01*
G01X1691Y12948D01*
G01X1689Y12975D01*
G01X1686Y13003D01*
G01X1684Y13030D01*
G01X1681Y13058D01*
G01X1679Y13086D01*
G01X1677Y13114D01*
G01X1675Y13142D01*
G01X1674Y13171D01*
G01X1672Y13199D01*
G01X1671Y13227D01*
G01X1670Y13255D01*
G01X1668Y13284D01*
G01X1668Y13312D01*
G01X1667Y13368D01*
G01X1666Y13396D01*
G01X1666Y13478D01*
G01X1667Y13505D01*
G01X1667Y13532D01*
G01X1668Y13558D01*
G01X1668Y13584D01*
G01X1669Y13610D01*
G01X1671Y13635D01*
G01X1672Y13660D01*
G01X1674Y13684D01*
G01X1676Y13708D01*
G01X1677Y13732D01*
G01X1680Y13755D01*
G01X1682Y13778D01*
G01X1684Y13799D01*
G01X1687Y13821D01*
G01X1690Y13841D01*
G01X1693Y13861D01*
G01X1696Y13881D01*
G01X1700Y13900D01*
G01X1705Y13925D01*
G01X1710Y13950D01*
G01X1715Y13975D01*
G01X1726Y14024D01*
G01X1732Y14049D01*
G01X1738Y14073D01*
G01X1744Y14098D01*
G01X1750Y14123D01*
G01X1764Y14171D01*
G01X1771Y14195D01*
G01X1777Y14219D01*
G01X1785Y14243D01*
G01X1792Y14267D01*
G01X1800Y14290D01*
G01X1815Y14338D01*
G01X1824Y14361D01*
G01X1840Y14407D01*
G01X1849Y14431D01*
G01X1858Y14454D01*
G01X1867Y14476D01*
G01X1885Y14522D01*
G01X1895Y14544D01*
G01X1905Y14567D01*
G01X1914Y14589D01*
G01X1924Y14611D01*
G01X1935Y14634D01*
G01X1955Y14678D01*
G01X1966Y14699D01*
G01X1977Y14721D01*
G01X1988Y14742D01*
G01X1999Y14764D01*
G01X2022Y14807D01*
G01X2033Y14828D01*
G01X2045Y14848D01*
G01X2057Y14869D01*
G01X2081Y14911D01*
G01X2106Y14951D01*
G01X2131Y14992D01*
G01X2144Y15012D01*
G01X2171Y15051D01*
G01X2184Y15071D01*
G01X2198Y15090D01*
G01X2212Y15110D01*
G01X2226Y15129D01*
G01X2239Y15148D01*
G01X2254Y15167D01*
G01X2268Y15186D01*
G01X2282Y15205D01*
G01X2297Y15223D01*
G01X2312Y15242D01*
G01X2342Y15278D01*
G01X2357Y15296D01*
G01X2372Y15314D01*
G01X2388Y15332D01*
G01X2403Y15349D01*
G01X2419Y15367D01*
G01X2451Y15401D01*
G01X2484Y15435D01*
G01X2500Y15451D01*
G01X2517Y15468D01*
G01X2533Y15484D01*
G01X2550Y15501D01*
G01X2567Y15517D01*
G01X2584Y15533D01*
G01X2601Y15549D01*
G01X2618Y15565D01*
G01X2636Y15580D01*
G01X2654Y15596D01*
G01X2689Y15626D01*
G01X2725Y15655D01*
G01X2744Y15670D01*
G01X2762Y15685D01*
G01X2799Y15713D01*
G01X2818Y15727D01*
G01X2837Y15741D01*
G01X2856Y15755D01*
G01X2875Y15768D01*
G01X2894Y15782D01*
G01X2933Y15808D01*
G01X2972Y15834D01*
G01X2992Y15846D01*
G01X3012Y15858D01*
G01X3032Y15871D01*
G01X3072Y15894D01*
G01X3093Y15906D01*
G01X3113Y15918D01*
G01X3134Y15929D01*
G01X3154Y15940D01*
G01X3175Y15951D01*
G01X3217Y15973D01*
G01X3260Y15994D01*
G01X3281Y16004D01*
G01X3302Y16014D01*
G01X3324Y16024D01*
G01X3346Y16033D01*
G01X3367Y16043D01*
G01X3389Y16052D01*
G01X3411Y16061D01*
G01X3433Y16070D01*
G01X3478Y16087D01*
G01X3500Y16096D01*
G01X3523Y16104D01*
G01X3545Y16112D01*
G01X3568Y16120D01*
G01X3591Y16127D01*
G01X3614Y16135D01*
G01X3636Y16142D01*
G01X3660Y16149D01*
G01X3683Y16156D01*
G01X3706Y16163D01*
G01X3729Y16169D01*
G01X3753Y16175D01*
G01X3776Y16182D01*
G01X3796Y16186D01*
G01X3815Y16191D01*
G01X3836Y16195D01*
G01X3857Y16200D01*
G01X3878Y16204D01*
G01X3900Y16207D01*
G01X3922Y16211D01*
G01X3944Y16215D01*
G01X3967Y16218D01*
G01X3990Y16221D01*
G01X4013Y16225D01*
G01X4037Y16228D01*
G01X4061Y16230D01*
G01X4085Y16233D01*
G01X4110Y16235D01*
G01X4135Y16237D01*
G01X4160Y16239D01*
G01X4185Y16241D01*
G01X4210Y16243D01*
G01X4236Y16244D01*
G01X4262Y16246D01*
G01X4314Y16248D01*
G01X4340Y16248D01*
G01X4366Y16249D01*
G01X4418Y16250D01*
G01X4471Y16250D01*
G01X4523Y16249D01*
G01X4549Y16248D01*
G01X4575Y16248D01*
G01X4627Y16246D01*
G01X4652Y16244D01*
G01X4678Y16243D01*
G01X4703Y16241D01*
G01X4729Y16239D01*
G01X4754Y16237D01*
G01X4778Y16235D01*
G01X4803Y16233D01*
G01X4827Y16230D01*
G01X4852Y16228D01*
G01X4875Y16225D01*
G01X4899Y16221D01*
G01X4922Y16218D01*
G01X4945Y16215D01*
G01X4967Y16211D01*
G01X4989Y16207D01*
G01X5011Y16204D01*
G01X5032Y16200D01*
G01X5053Y16195D01*
G01X5073Y16191D01*
G01X5093Y16186D01*
G01X5113Y16182D01*
G01X5160Y16169D01*
G01X5209Y16155D01*
G01X5256Y16141D01*
G01X5280Y16133D01*
G01X5303Y16125D01*
G01X5350Y16109D01*
G01X5373Y16101D01*
G01X5397Y16092D01*
G01X5420Y16084D01*
G01X5443Y16075D01*
G01X5466Y16065D01*
G01X5489Y16056D01*
G01X5511Y16046D01*
G01X5534Y16036D01*
G01X5557Y16026D01*
G01X5579Y16016D01*
G01X5602Y16006D01*
G01X5624Y15995D01*
G01X5646Y15984D01*
G01X5690Y15963D01*
G01X5712Y15951D01*
G01X5734Y15940D01*
G01X5755Y15928D01*
G01X5777Y15916D01*
G01X5798Y15904D01*
G01X5820Y15891D01*
G01X5862Y15866D01*
G01X5883Y15853D01*
G01X5904Y15840D01*
G01X5925Y15827D01*
G01X5966Y15800D01*
G01X5986Y15786D01*
G01X6006Y15772D01*
G01X6027Y15758D01*
G01X6067Y15729D01*
G01X6086Y15714D01*
G01X6126Y15684D01*
G01X6145Y15669D01*
G01X6184Y15638D01*
G01X6202Y15622D01*
G01X6221Y15606D01*
G01X6240Y15590D01*
G01X6277Y15557D01*
G01X6296Y15540D01*
G01X6314Y15524D01*
G01X6332Y15507D01*
G01X6368Y15472D01*
G01X6403Y15437D01*
G01X6420Y15419D01*
G01X6437Y15401D01*
G01X6471Y15365D01*
G01X6505Y15328D01*
G01X6521Y15309D01*
G01X6553Y15271D01*
G01X6569Y15252D01*
G01X6585Y15232D01*
G01X6601Y15213D01*
G01X6617Y15193D01*
G01X6632Y15173D01*
G01X6647Y15153D01*
G01X6662Y15133D01*
G01X6677Y15113D01*
G01X6692Y15092D01*
G01X6706Y15071D01*
G01X6721Y15051D01*
G01X6735Y15030D01*
G01X6749Y15009D01*
G01X6763Y14987D01*
G01X6776Y14966D01*
G01X6790Y14945D01*
G01X6803Y14924D01*
G01X6828Y14881D01*
G01X6841Y14860D01*
G01X6865Y14818D01*
G01X6877Y14796D01*
G01X6889Y14775D01*
G01X6901Y14754D01*
G01X6912Y14732D01*
G01X6923Y14711D01*
G01X6934Y14690D01*
G01X6944Y14668D01*
G01X6955Y14647D01*
G01X6975Y14603D01*
G01X6985Y14582D01*
G01X6994Y14560D01*
G01X7004Y14538D01*
G01X7013Y14517D01*
G01X7022Y14495D01*
G01X7031Y14473D01*
G01X7048Y14429D01*
G01X7056Y14407D01*
G01X7064Y14385D01*
G01X7072Y14363D01*
G01X7080Y14340D01*
G01X7087Y14318D01*
G01X7094Y14295D01*
G01X7102Y14273D01*
G01X7108Y14250D01*
G01X7115Y14228D01*
G01X7122Y14205D01*
G01X7128Y14182D01*
G01X7140Y14136D01*
G01X7146Y14113D01*
G01X7156Y14066D01*
G01X7162Y14042D01*
G01X7167Y14019D01*
G01X7172Y13995D01*
G01X7176Y13971D01*
G01X7185Y13923D01*
G01X7189Y13898D01*
G01X7193Y13874D01*
G01X7200Y13825D01*
G01X7203Y13800D01*
G01X7207Y13776D01*
G01X7210Y13751D01*
G01X7213Y13725D01*
G01X7215Y13700D01*
G01X7218Y13675D01*
G01X7220Y13649D01*
G01X7222Y13623D01*
G01X7226Y13571D01*
G01X7229Y13518D01*
G01X7231Y13465D01*
G01X7232Y13438D01*
G01X7233Y13411D01*
G01X7234Y13384D01*
G01X7234Y13356D01*
G01X7234Y13329D01*
G01X7234Y13273D01*
G01X7234Y13246D01*
G01X7234Y13219D01*
G01X7233Y13192D01*
G01X7232Y13165D01*
G01X7232Y13139D01*
G01X7231Y13113D01*
G01X7230Y13086D01*
G01X7228Y13061D01*
G01X7227Y13035D01*
G01X7223Y12984D01*
G01X7221Y12958D01*
G01X7219Y12933D01*
G01X7216Y12908D01*
G01X7214Y12884D01*
G01X7211Y12859D01*
G01X7208Y12834D01*
G01X7205Y12810D01*
G01X7202Y12786D01*
G01X7198Y12762D01*
G01X7191Y12714D01*
G01X7187Y12691D01*
G01X7183Y12667D01*
G01X7178Y12644D01*
G01X7169Y12598D01*
G01X7164Y12575D01*
G01X7159Y12552D01*
G01X7154Y12529D01*
G01X7148Y12506D01*
G01X7143Y12484D01*
G01X7131Y12439D01*
G01X7125Y12417D01*
G01X7118Y12395D01*
G01X7111Y12373D01*
G01X7105Y12351D01*
G01X7098Y12329D01*
G01X7090Y12307D01*
G01X7083Y12285D01*
G01X7076Y12264D01*
G01X7068Y12242D01*
G01X7060Y12221D01*
G01X7052Y12199D01*
G01X7043Y12178D01*
G01X7035Y12157D01*
G01X7026Y12135D01*
G01X7017Y12114D01*
G01X7007Y12093D01*
G01X6998Y12072D01*
G01X6989Y12051D01*
G01X6979Y12030D01*
G01X6969Y12009D01*
G01X6958Y11988D01*
G01X6948Y11967D01*
G01X6937Y11946D01*
G01X6926Y11925D01*
G01X6915Y11905D01*
G01X6904Y11884D01*
G01X6893Y11863D01*
G01X6869Y11821D01*
G01X6857Y11801D01*
G01X6844Y11780D01*
G01X6832Y11759D01*
G01X6819Y11739D01*
G01X6806Y11718D01*
G01X6793Y11697D01*
G01X6779Y11676D01*
G01X6765Y11656D01*
G01X6755Y11640D01*
G01X6744Y11624D01*
G01X6732Y11608D01*
G01X6720Y11591D01*
G01X6708Y11575D01*
G01X6696Y11558D01*
G01X6682Y11541D01*
G01X6669Y11523D01*
G01X6655Y11506D01*
G01X6641Y11488D01*
G01X6627Y11471D01*
G01X6612Y11453D01*
G01X6597Y11435D01*
G01X6582Y11417D01*
G01X6566Y11399D01*
G01X6550Y11380D01*
G01X6534Y11362D01*
G01X6517Y11344D01*
G01X6501Y11325D01*
G01X6484Y11306D01*
G01X6466Y11288D01*
G01X6449Y11269D01*
G01X6431Y11250D01*
G01X6413Y11231D01*
G01X6395Y11213D01*
G01X6376Y11194D01*
G01X6358Y11175D01*
G01X6339Y11156D01*
G01X6320Y11137D01*
G01X6301Y11118D01*
G01X6282Y11099D01*
G01X6262Y11080D01*
G01X6243Y11061D01*
G01X6203Y11024D01*
G01X6163Y10987D01*
G01X6123Y10950D01*
G01X6102Y10932D01*
G01X6062Y10896D01*
G01X6041Y10878D01*
G01X6021Y10861D01*
G01X6000Y10843D01*
G01X5980Y10826D01*
G01X5938Y10791D01*
G01X5897Y10757D01*
G01X5856Y10725D01*
G01X5835Y10709D01*
G01X5815Y10693D01*
G01X5794Y10677D01*
G01X5774Y10662D01*
G01X5754Y10647D01*
G01X5734Y10632D01*
G01X5714Y10617D01*
G01X5693Y10603D01*
G01X5664Y10582D01*
G01X5634Y10561D01*
G01X5606Y10540D01*
G01X5578Y10521D01*
G01X5552Y10502D01*
G01X5526Y10484D01*
G01X5502Y10466D01*
G01X5480Y10450D01*
G01X5459Y10435D01*
G01X5440Y10422D01*
G01X5424Y10409D01*
G01X5409Y10399D01*
G01X5397Y10390D01*
G01X5387Y10383D01*
G01X5381Y10378D01*
G01X5376Y10374D01*
G01X5376Y10371D01*
G01X5378Y10365D01*
G01X5383Y10358D01*
G01X5392Y10348D01*
G01X5403Y10337D01*
G01X5417Y10324D01*
G01X5433Y10309D01*
G01X5452Y10294D01*
G01X5473Y10276D01*
G01X5496Y10258D01*
G01X5521Y10238D01*
G01X5547Y10218D01*
G01X5576Y10197D01*
G01X5605Y10175D01*
G01X5636Y10152D01*
G01X5668Y10130D01*
G01X5692Y10113D01*
G01X5738Y10080D01*
G01X5784Y10046D01*
G01X5806Y10029D01*
G01X5829Y10012D01*
G01X5851Y9996D01*
G01X5895Y9961D01*
G01X5917Y9944D01*
G01X5938Y9927D01*
G01X5960Y9910D01*
G01X5981Y9893D01*
G01X6002Y9876D01*
G01X6023Y9858D01*
G01X6064Y9823D01*
G01X6084Y9806D01*
G01X6104Y9788D01*
G01X6124Y9771D01*
G01X6164Y9736D01*
G01X6183Y9718D01*
G01X6202Y9700D01*
G01X6221Y9682D01*
G01X6240Y9664D01*
G01X6259Y9646D01*
G01X6277Y9628D01*
G01X6296Y9611D01*
G01X6332Y9574D01*
G01X6368Y9538D01*
G01X6385Y9520D01*
G01X6402Y9501D01*
G01X6420Y9483D01*
G01X6436Y9465D01*
G01X6453Y9446D01*
G01X6470Y9428D01*
G01X6486Y9409D01*
G01X6503Y9390D01*
G01X6535Y9353D01*
G01X6551Y9334D01*
G01X6581Y9297D01*
G01X6597Y9278D01*
G01X6611Y9259D01*
G01X6627Y9240D01*
G01X6641Y9221D01*
G01X6656Y9202D01*
G01X6670Y9183D01*
G01X6684Y9164D01*
G01X6698Y9145D01*
G01X6712Y9126D01*
G01X6726Y9106D01*
G01X6739Y9087D01*
G01X6752Y9067D01*
G01X6778Y9029D01*
G01X6791Y9009D01*
G01X6816Y8970D01*
G01X6828Y8950D01*
G01X6840Y8931D01*
G01X6864Y8891D01*
G01X6886Y8851D01*
G01X6908Y8811D01*
G01X6919Y8792D01*
G01X6930Y8771D01*
G01X6940Y8751D01*
G01X6950Y8731D01*
G01X6960Y8711D01*
G01X6970Y8691D01*
G01X6980Y8671D01*
G01X6989Y8650D01*
G01X6999Y8630D01*
G01X7008Y8609D01*
G01X7017Y8589D01*
G01X7026Y8569D01*
G01X7035Y8548D01*
G01X7043Y8527D01*
G01X7051Y8507D01*
G01X7059Y8486D01*
G01X7067Y8465D01*
G01X7075Y8444D01*
G01X7082Y8424D01*
G01X7090Y8403D01*
G01X7097Y8382D01*
G01X7104Y8361D01*
G01X7111Y8340D01*
G01X7124Y8298D01*
G01X7130Y8277D01*
G01X7136Y8256D01*
G01X7143Y8234D01*
G01X7148Y8213D01*
G01X7154Y8192D01*
G01X7164Y8149D01*
G01X7169Y8128D01*
G01X7174Y8106D01*
G01X7179Y8085D01*
G01X7184Y8063D01*
G01X7187Y8044D01*
G01X7191Y8025D01*
G01X7194Y8005D01*
G01X7198Y7984D01*
G01X7201Y7964D01*
G01X7204Y7942D01*
G01X7207Y7921D01*
G01X7210Y7899D01*
G01X7212Y7876D01*
G01X7214Y7853D01*
G01X7217Y7830D01*
G01X7219Y7807D01*
G01X7221Y7783D01*
G01X7225Y7734D01*
G01X7226Y7710D01*
G01X7228Y7685D01*
G01X7229Y7660D01*
G01X7230Y7635D01*
G01X7231Y7609D01*
G01X7232Y7584D01*
G01X7233Y7558D01*
G01X7233Y7532D01*
G01X7234Y7480D01*
G01X7234Y7401D01*
G01X7234Y7375D01*
G01X7233Y7348D01*
G01X7233Y7322D01*
G01X7232Y7296D01*
G01X7231Y7270D01*
G01X7230Y7244D01*
G01X7228Y7192D01*
G01X7227Y7166D01*
G01X7225Y7140D01*
G01X7223Y7114D01*
G01X7221Y7089D01*
G01X7219Y7064D01*
G01X7217Y7039D01*
G01X7215Y7014D01*
G01X7213Y6990D01*
G01X7210Y6965D01*
G01X7207Y6941D01*
G01X7205Y6917D01*
G01X7202Y6894D01*
G01X7198Y6871D01*
G01X7195Y6848D01*
G01X7192Y6826D01*
G01X7189Y6804D01*
G01X7185Y6782D01*
G01X7181Y6761D01*
G01X7177Y6740D01*
G01X7173Y6720D01*
G01X7168Y6696D01*
G01X7163Y6673D01*
G01X7157Y6649D01*
G01X7152Y6625D01*
G01X7146Y6602D01*
G01X7134Y6555D01*
G01X7121Y6509D01*
G01X7115Y6486D01*
G01X7108Y6463D01*
G01X7101Y6440D01*
G01X7094Y6417D01*
G01X7086Y6394D01*
G01X7079Y6372D01*
G01X7071Y6349D01*
G01X7063Y6327D01*
G01X7055Y6304D01*
G01X7047Y6282D01*
G01X7039Y6260D01*
G01X7030Y6238D01*
G01X7021Y6216D01*
G01X7013Y6194D01*
G01X7003Y6172D01*
G01X6994Y6151D01*
G01X6985Y6129D01*
G01X6965Y6086D01*
G01X6956Y6065D01*
G01X6946Y6044D01*
G01X6935Y6023D01*
G01X6925Y6002D01*
G01X6914Y5981D01*
G01X6903Y5960D01*
G01X6893Y5940D01*
G01X6882Y5919D01*
G01X6870Y5898D01*
G01X6859Y5878D01*
G01X6836Y5838D01*
G01X6824Y5818D01*
G01X6800Y5778D01*
G01X6788Y5759D01*
G01X6775Y5739D01*
G01X6763Y5719D01*
G01X6750Y5700D01*
G01X6724Y5662D01*
G01X6710Y5643D01*
G01X6697Y5624D01*
G01X6684Y5605D01*
G01X6656Y5568D01*
G01X6642Y5550D01*
G01X6628Y5532D01*
G01X6614Y5513D01*
G01X6599Y5495D01*
G01X6585Y5477D01*
G01X6570Y5459D01*
G01X6540Y5424D01*
G01X6525Y5407D01*
G01X6510Y5390D01*
G01X6494Y5373D01*
G01X6478Y5355D01*
G01X6463Y5338D01*
G01X6447Y5322D01*
G01X6431Y5305D01*
G01X6415Y5288D01*
G01X6398Y5272D01*
G01X6382Y5256D01*
G01X6365Y5240D01*
G01X6349Y5224D01*
G01X6332Y5208D01*
G01X6315Y5192D01*
G01X6298Y5176D01*
G01X6281Y5161D01*
G01X6263Y5146D01*
G01X6246Y5130D01*
G01X6228Y5115D01*
G01X6210Y5101D01*
G01X6174Y5071D01*
G01X6138Y5042D01*
G01X6119Y5028D01*
G01X6082Y5000D01*
G01X6064Y4986D01*
G01X6026Y4959D01*
G01X6006Y4946D01*
G01X5987Y4932D01*
G01X5968Y4919D01*
G01X5948Y4907D01*
G01X5928Y4894D01*
G01X5889Y4869D01*
G01X5868Y4857D01*
G01X5848Y4844D01*
G01X5808Y4820D01*
G01X5787Y4809D01*
G01X5767Y4797D01*
G01X5746Y4786D01*
G01X5725Y4775D01*
G01X5704Y4763D01*
G01X5662Y4742D01*
G01X5640Y4731D01*
G01X5619Y4721D01*
G01X5576Y4700D01*
G01X5554Y4690D01*
G01X5532Y4680D01*
G01X5510Y4671D01*
G01X5466Y4652D01*
G01X5444Y4643D01*
G01X5421Y4634D01*
G01X5399Y4625D01*
G01X5376Y4616D01*
G01X5331Y4599D01*
G01X5307Y4591D01*
G01X5285Y4583D01*
G01X5261Y4575D01*
G01X5238Y4568D01*
G01X5191Y4553D01*
G01X5168Y4546D01*
G01X5147Y4540D01*
G01X5126Y4534D01*
G01X5104Y4528D01*
G01X5082Y4523D01*
G01X5059Y4517D01*
G01X5037Y4513D01*
G01X5014Y4507D01*
G01X4990Y4503D01*
G01X4966Y4498D01*
G01X4942Y4494D01*
G01X4918Y4490D01*
G01X4893Y4486D01*
G01X4868Y4483D01*
G01X4843Y4480D01*
G01X4818Y4476D01*
G01X4793Y4473D01*
G01X4767Y4471D01*
G01X4741Y4468D01*
G01X4689Y4464D01*
G01X4663Y4462D01*
G01X4637Y4460D01*
G01X4610Y4459D01*
G01X4557Y4456D01*
G01X4530Y4455D01*
G01X4504Y4455D01*
G01X4477Y4455D01*
G01X4450Y4454D01*
G37*

%LPC*%
G36*
G01X4415Y5443D02*
G01X4444Y5442D01*
G01X4472Y5443D01*
G01X4498Y5443D01*
G01X4525Y5444D01*
G01X4552Y5445D01*
G01X4577Y5446D01*
G01X4603Y5448D01*
G01X4629Y5450D01*
G01X4654Y5452D01*
G01X4679Y5454D01*
G01X4704Y5457D01*
G01X4728Y5460D01*
G01X4752Y5463D01*
G01X4776Y5467D01*
G01X4800Y5471D01*
G01X4824Y5475D01*
G01X4870Y5485D01*
G01X4893Y5490D01*
G01X4916Y5496D01*
G01X4938Y5502D01*
G01X4961Y5508D01*
G01X4983Y5515D01*
G01X5005Y5522D01*
G01X5027Y5529D01*
G01X5048Y5537D01*
G01X5070Y5545D01*
G01X5091Y5553D01*
G01X5113Y5562D01*
G01X5134Y5571D01*
G01X5155Y5580D01*
G01X5176Y5590D01*
G01X5197Y5600D01*
G01X5217Y5611D01*
G01X5238Y5622D01*
G01X5258Y5633D01*
G01X5279Y5645D01*
G01X5299Y5657D01*
G01X5319Y5669D01*
G01X5339Y5682D01*
G01X5360Y5695D01*
G01X5380Y5709D01*
G01X5400Y5723D01*
G01X5420Y5737D01*
G01X5440Y5752D01*
G01X5460Y5767D01*
G01X5480Y5782D01*
G01X5500Y5798D01*
G01X5520Y5815D01*
G01X5540Y5832D01*
G01X5560Y5849D01*
G01X5580Y5866D01*
G01X5600Y5884D01*
G01X5620Y5903D01*
G01X5640Y5922D01*
G01X5660Y5941D01*
G01X5681Y5961D01*
G01X5699Y5980D01*
G01X5718Y5998D01*
G01X5736Y6017D01*
G01X5753Y6036D01*
G01X5771Y6055D01*
G01X5788Y6073D01*
G01X5804Y6092D01*
G01X5821Y6111D01*
G01X5836Y6130D01*
G01X5852Y6149D01*
G01X5867Y6167D01*
G01X5882Y6186D01*
G01X5897Y6206D01*
G01X5911Y6225D01*
G01X5925Y6244D01*
G01X5938Y6263D01*
G01X5951Y6283D01*
G01X5964Y6302D01*
G01X5977Y6322D01*
G01X5989Y6342D01*
G01X6001Y6362D01*
G01X6012Y6382D01*
G01X6023Y6402D01*
G01X6035Y6422D01*
G01X6045Y6442D01*
G01X6056Y6463D01*
G01X6066Y6484D01*
G01X6075Y6505D01*
G01X6085Y6526D01*
G01X6094Y6547D01*
G01X6103Y6569D01*
G01X6111Y6590D01*
G01X6120Y6612D01*
G01X6128Y6634D01*
G01X6136Y6657D01*
G01X6143Y6679D01*
G01X6151Y6702D01*
G01X6157Y6725D01*
G01X6164Y6748D01*
G01X6171Y6772D01*
G01X6177Y6796D01*
G01X6183Y6820D01*
G01X6188Y6844D01*
G01X6194Y6869D01*
G01X6199Y6894D01*
G01X6204Y6919D01*
G01X6209Y6944D01*
G01X6213Y6971D01*
G01X6217Y6997D01*
G01X6221Y7023D01*
G01X6225Y7050D01*
G01X6229Y7077D01*
G01X6232Y7105D01*
G01X6235Y7132D01*
G01X6238Y7161D01*
G01X6241Y7189D01*
G01X6243Y7218D01*
G01X6245Y7248D01*
G01X6247Y7277D01*
G01X6249Y7307D01*
G01X6251Y7333D01*
G01X6252Y7358D01*
G01X6253Y7408D01*
G01X6254Y7433D01*
G01X6254Y7482D01*
G01X6253Y7506D01*
G01X6253Y7530D01*
G01X6252Y7554D01*
G01X6251Y7578D01*
G01X6250Y7602D01*
G01X6248Y7625D01*
G01X6246Y7649D01*
G01X6242Y7695D01*
G01X6239Y7718D01*
G01X6236Y7741D01*
G01X6234Y7764D01*
G01X6230Y7786D01*
G01X6227Y7809D01*
G01X6223Y7832D01*
G01X6219Y7854D01*
G01X6214Y7876D01*
G01X6210Y7898D01*
G01X6205Y7920D01*
G01X6200Y7942D01*
G01X6194Y7963D01*
G01X6189Y7985D01*
G01X6177Y8028D01*
G01X6164Y8070D01*
G01X6156Y8091D01*
G01X6149Y8112D01*
G01X6142Y8133D01*
G01X6134Y8154D01*
G01X6126Y8175D01*
G01X6118Y8195D01*
G01X6109Y8215D01*
G01X6100Y8236D01*
G01X6091Y8256D01*
G01X6082Y8276D01*
G01X6072Y8297D01*
G01X6062Y8317D01*
G01X6052Y8337D01*
G01X6042Y8357D01*
G01X6031Y8376D01*
G01X6020Y8396D01*
G01X6008Y8416D01*
G01X5997Y8436D01*
G01X5985Y8455D01*
G01X5973Y8475D01*
G01X5947Y8513D01*
G01X5934Y8533D01*
G01X5921Y8552D01*
G01X5907Y8571D01*
G01X5880Y8610D01*
G01X5865Y8629D01*
G01X5850Y8648D01*
G01X5835Y8667D01*
G01X5820Y8686D01*
G01X5804Y8705D01*
G01X5788Y8723D01*
G01X5756Y8761D01*
G01X5739Y8780D01*
G01X5722Y8798D01*
G01X5704Y8817D01*
G01X5686Y8836D01*
G01X5650Y8873D01*
G01X5631Y8892D01*
G01X5613Y8910D01*
G01X5593Y8929D01*
G01X5574Y8947D01*
G01X5554Y8966D01*
G01X5534Y8984D01*
G01X5513Y9003D01*
G01X5493Y9021D01*
G01X5472Y9040D01*
G01X5450Y9058D01*
G01X5437Y9069D01*
G01X5423Y9081D01*
G01X5407Y9094D01*
G01X5391Y9107D01*
G01X5373Y9121D01*
G01X5355Y9135D01*
G01X5336Y9150D01*
G01X5315Y9165D01*
G01X5295Y9180D01*
G01X5273Y9196D01*
G01X5251Y9213D01*
G01X5228Y9230D01*
G01X5204Y9247D01*
G01X5180Y9264D01*
G01X5156Y9282D01*
G01X5131Y9299D01*
G01X5106Y9317D01*
G01X5055Y9353D01*
G01X5029Y9371D01*
G01X4924Y9443D01*
G01X4872Y9478D01*
G01X4846Y9496D01*
G01X4821Y9513D01*
G01X4795Y9529D01*
G01X4770Y9546D01*
G01X4746Y9562D01*
G01X4721Y9578D01*
G01X4698Y9593D01*
G01X4675Y9608D01*
G01X4652Y9623D01*
G01X4630Y9636D01*
G01X4609Y9650D01*
G01X4589Y9662D01*
G01X4569Y9675D01*
G01X4550Y9686D01*
G01X4532Y9696D01*
G01X4516Y9707D01*
G01X4500Y9716D01*
G01X4485Y9724D01*
G01X4472Y9732D01*
G01X4459Y9738D01*
G01X4448Y9744D01*
G01X4438Y9748D01*
G01X4429Y9752D01*
G01X4422Y9755D01*
G01X4417Y9757D01*
G01X4412Y9757D01*
G01X4406Y9757D01*
G01X4399Y9755D01*
G01X4390Y9752D01*
G01X4381Y9748D01*
G01X4369Y9744D01*
G01X4357Y9738D01*
G01X4344Y9731D01*
G01X4330Y9723D01*
G01X4315Y9715D01*
G01X4298Y9705D01*
G01X4281Y9696D01*
G01X4263Y9684D01*
G01X4244Y9673D01*
G01X4225Y9661D01*
G01X4205Y9647D01*
G01X4184Y9634D01*
G01X4140Y9605D01*
G01X4118Y9589D01*
G01X4094Y9573D01*
G01X4071Y9557D01*
G01X4047Y9540D01*
G01X4023Y9523D01*
G01X3998Y9505D01*
G01X3973Y9487D01*
G01X3948Y9469D01*
G01X3923Y9451D01*
G01X3898Y9432D01*
G01X3848Y9394D01*
G01X3797Y9356D01*
G01X3772Y9336D01*
G01X3747Y9317D01*
G01X3723Y9298D01*
G01X3699Y9278D01*
G01X3675Y9259D01*
G01X3651Y9240D01*
G01X3628Y9221D01*
G01X3605Y9202D01*
G01X3583Y9184D01*
G01X3561Y9165D01*
G01X3540Y9147D01*
G01X3520Y9130D01*
G01X3501Y9112D01*
G01X3482Y9095D01*
G01X3464Y9078D01*
G01X3446Y9062D01*
G01X3427Y9044D01*
G01X3408Y9026D01*
G01X3389Y9007D01*
G01X3369Y8987D01*
G01X3349Y8967D01*
G01X3310Y8926D01*
G01X3290Y8905D01*
G01X3251Y8864D01*
G01X3231Y8843D01*
G01X3213Y8822D01*
G01X3194Y8802D01*
G01X3176Y8781D01*
G01X3158Y8761D01*
G01X3141Y8742D01*
G01X3125Y8723D01*
G01X3109Y8704D01*
G01X3094Y8686D01*
G01X3081Y8669D01*
G01X3067Y8652D01*
G01X3055Y8636D01*
G01X3044Y8621D01*
G01X3034Y8607D01*
G01X3019Y8587D01*
G01X3005Y8566D01*
G01X2991Y8546D01*
G01X2977Y8526D01*
G01X2964Y8506D01*
G01X2952Y8486D01*
G01X2940Y8467D01*
G01X2928Y8448D01*
G01X2916Y8428D01*
G01X2905Y8409D01*
G01X2894Y8389D01*
G01X2884Y8370D01*
G01X2873Y8351D01*
G01X2864Y8331D01*
G01X2854Y8311D01*
G01X2844Y8292D01*
G01X2835Y8271D01*
G01X2827Y8251D01*
G01X2818Y8231D01*
G01X2810Y8210D01*
G01X2801Y8189D01*
G01X2793Y8167D01*
G01X2785Y8146D01*
G01X2778Y8124D01*
G01X2770Y8101D01*
G01X2763Y8078D01*
G01X2756Y8055D01*
G01X2749Y8030D01*
G01X2742Y8006D01*
G01X2735Y7981D01*
G01X2729Y7955D01*
G01X2722Y7928D01*
G01X2715Y7901D01*
G01X2709Y7874D01*
G01X2703Y7845D01*
G01X2697Y7816D01*
G01X2690Y7786D01*
G01X2684Y7755D01*
G01X2678Y7723D01*
G01X2672Y7691D01*
G01X2665Y7657D01*
G01X2659Y7623D01*
G01X2653Y7587D01*
G01X2647Y7551D01*
G01X2644Y7536D01*
G01X2643Y7521D01*
G01X2641Y7503D01*
G01X2640Y7486D01*
G01X2639Y7467D01*
G01X2639Y7447D01*
G01X2638Y7426D01*
G01X2639Y7404D01*
G01X2639Y7382D01*
G01X2640Y7359D01*
G01X2641Y7335D01*
G01X2642Y7310D01*
G01X2644Y7285D01*
G01X2646Y7260D01*
G01X2648Y7234D01*
G01X2650Y7208D01*
G01X2653Y7182D01*
G01X2656Y7155D01*
G01X2659Y7128D01*
G01X2663Y7101D01*
G01X2666Y7074D01*
G01X2670Y7047D01*
G01X2674Y7021D01*
G01X2678Y6994D01*
G01X2683Y6967D01*
G01X2688Y6941D01*
G01X2692Y6915D01*
G01X2697Y6890D01*
G01X2702Y6865D01*
G01X2708Y6840D01*
G01X2713Y6817D01*
G01X2719Y6793D01*
G01X2725Y6771D01*
G01X2731Y6749D01*
G01X2737Y6728D01*
G01X2743Y6708D01*
G01X2751Y6685D01*
G01X2758Y6662D01*
G01X2767Y6639D01*
G01X2775Y6616D01*
G01X2784Y6594D01*
G01X2793Y6571D01*
G01X2802Y6548D01*
G01X2812Y6526D01*
G01X2822Y6504D01*
G01X2832Y6482D01*
G01X2843Y6460D01*
G01X2853Y6439D01*
G01X2865Y6417D01*
G01X2876Y6396D01*
G01X2888Y6375D01*
G01X2900Y6353D01*
G01X2912Y6332D01*
G01X2925Y6312D01*
G01X2937Y6291D01*
G01X2951Y6271D01*
G01X2964Y6250D01*
G01X2977Y6230D01*
G01X2991Y6210D01*
G01X3005Y6190D01*
G01X3019Y6171D01*
G01X3034Y6152D01*
G01X3049Y6132D01*
G01X3064Y6113D01*
G01X3079Y6095D01*
G01X3095Y6076D01*
G01X3110Y6058D01*
G01X3127Y6040D01*
G01X3143Y6021D01*
G01X3159Y6004D01*
G01X3176Y5986D01*
G01X3193Y5969D01*
G01X3210Y5952D01*
G01X3227Y5935D01*
G01X3244Y5918D01*
G01X3262Y5901D01*
G01X3280Y5885D01*
G01X3298Y5869D01*
G01X3316Y5853D01*
G01X3335Y5838D01*
G01X3353Y5823D01*
G01X3372Y5808D01*
G01X3391Y5793D01*
G01X3410Y5778D01*
G01X3430Y5764D01*
G01X3449Y5750D01*
G01X3469Y5736D01*
G01X3489Y5723D01*
G01X3509Y5710D01*
G01X3529Y5697D01*
G01X3549Y5684D01*
G01X3570Y5671D01*
G01X3590Y5659D01*
G01X3611Y5648D01*
G01X3632Y5636D01*
G01X3653Y5625D01*
G01X3674Y5614D01*
G01X3696Y5603D01*
G01X3717Y5593D01*
G01X3739Y5582D01*
G01X3760Y5573D01*
G01X3782Y5563D01*
G01X3804Y5554D01*
G01X3826Y5545D01*
G01X3871Y5528D01*
G01X3893Y5521D01*
G01X3915Y5513D01*
G01X3938Y5505D01*
G01X3961Y5499D01*
G01X3983Y5492D01*
G01X4006Y5486D01*
G01X4024Y5481D01*
G01X4044Y5477D01*
G01X4067Y5473D01*
G01X4091Y5469D01*
G01X4117Y5465D01*
G01X4144Y5461D01*
G01X4172Y5458D01*
G01X4202Y5455D01*
G01X4232Y5452D01*
G01X4263Y5450D01*
G01X4293Y5448D01*
G01X4325Y5446D01*
G01X4355Y5444D01*
G01X4385Y5443D01*
G01X4415Y5443D01*
G37*
G36*
G01X4406Y10959D02*
G01X4412Y10958D01*
G01X4417Y10959D01*
G01X4422Y10960D01*
G01X4430Y10963D01*
G01X4438Y10967D01*
G01X4448Y10971D01*
G01X4459Y10977D01*
G01X4472Y10984D01*
G01X4485Y10991D01*
G01X4500Y11000D01*
G01X4516Y11009D01*
G01X4533Y11019D01*
G01X4551Y11030D01*
G01X4569Y11041D01*
G01X4589Y11053D01*
G01X4610Y11066D01*
G01X4631Y11079D01*
G01X4653Y11093D01*
G01X4676Y11107D01*
G01X4699Y11123D01*
G01X4722Y11138D01*
G01X4747Y11154D01*
G01X4771Y11170D01*
G01X4797Y11187D01*
G01X4822Y11204D01*
G01X4847Y11221D01*
G01X4873Y11238D01*
G01X4900Y11256D01*
G01X4926Y11274D01*
G01X4952Y11292D01*
G01X4979Y11310D01*
G01X5005Y11328D01*
G01X5031Y11347D01*
G01X5058Y11365D01*
G01X5084Y11383D01*
G01X5110Y11401D01*
G01X5135Y11419D01*
G01X5160Y11437D01*
G01X5185Y11455D01*
G01X5209Y11473D01*
G01X5233Y11490D01*
G01X5256Y11507D01*
G01X5279Y11524D01*
G01X5301Y11540D01*
G01X5322Y11556D01*
G01X5343Y11572D01*
G01X5363Y11587D01*
G01X5381Y11601D01*
G01X5400Y11615D01*
G01X5417Y11629D01*
G01X5433Y11642D01*
G01X5447Y11654D01*
G01X5461Y11666D01*
G01X5482Y11684D01*
G01X5503Y11702D01*
G01X5523Y11720D01*
G01X5543Y11738D01*
G01X5563Y11756D01*
G01X5582Y11774D01*
G01X5602Y11792D01*
G01X5621Y11811D01*
G01X5639Y11829D01*
G01X5657Y11847D01*
G01X5675Y11865D01*
G01X5693Y11884D01*
G01X5710Y11902D01*
G01X5727Y11921D01*
G01X5744Y11939D01*
G01X5761Y11957D01*
G01X5777Y11976D01*
G01X5793Y11995D01*
G01X5809Y12013D01*
G01X5824Y12032D01*
G01X5839Y12051D01*
G01X5854Y12069D01*
G01X5869Y12088D01*
G01X5883Y12107D01*
G01X5897Y12126D01*
G01X5910Y12145D01*
G01X5924Y12165D01*
G01X5937Y12184D01*
G01X5950Y12203D01*
G01X5963Y12222D01*
G01X5975Y12242D01*
G01X5987Y12261D01*
G01X5999Y12280D01*
G01X6010Y12300D01*
G01X6021Y12319D01*
G01X6032Y12339D01*
G01X6043Y12359D01*
G01X6053Y12379D01*
G01X6063Y12399D01*
G01X6073Y12419D01*
G01X6083Y12439D01*
G01X6092Y12459D01*
G01X6101Y12480D01*
G01X6110Y12500D01*
G01X6118Y12521D01*
G01X6127Y12541D01*
G01X6135Y12562D01*
G01X6142Y12582D01*
G01X6150Y12603D01*
G01X6157Y12624D01*
G01X6171Y12667D01*
G01X6177Y12688D01*
G01X6183Y12709D01*
G01X6189Y12731D01*
G01X6194Y12752D01*
G01X6200Y12774D01*
G01X6205Y12796D01*
G01X6210Y12818D01*
G01X6214Y12840D01*
G01X6218Y12862D01*
G01X6223Y12884D01*
G01X6227Y12907D01*
G01X6230Y12929D01*
G01X6233Y12952D01*
G01X6236Y12975D01*
G01X6239Y12998D01*
G01X6242Y13021D01*
G01X6244Y13044D01*
G01X6246Y13067D01*
G01X6248Y13090D01*
G01X6250Y13114D01*
G01X6251Y13138D01*
G01X6252Y13161D01*
G01X6253Y13186D01*
G01X6253Y13209D01*
G01X6254Y13234D01*
G01X6254Y13258D01*
G01X6253Y13283D01*
G01X6253Y13307D01*
G01X6252Y13332D01*
G01X6252Y13357D01*
G01X6251Y13382D01*
G01X6249Y13408D01*
G01X6247Y13438D01*
G01X6245Y13467D01*
G01X6243Y13497D01*
G01X6241Y13526D01*
G01X6238Y13555D01*
G01X6235Y13583D01*
G01X6232Y13611D01*
G01X6229Y13638D01*
G01X6225Y13665D01*
G01X6221Y13692D01*
G01X6217Y13719D01*
G01X6213Y13745D01*
G01X6209Y13771D01*
G01X6204Y13796D01*
G01X6199Y13821D01*
G01X6194Y13846D01*
G01X6188Y13871D01*
G01X6183Y13895D01*
G01X6177Y13919D01*
G01X6171Y13943D01*
G01X6164Y13967D01*
G01X6157Y13990D01*
G01X6151Y14013D01*
G01X6143Y14036D01*
G01X6136Y14058D01*
G01X6128Y14081D01*
G01X6120Y14103D01*
G01X6111Y14125D01*
G01X6103Y14146D01*
G01X6094Y14168D01*
G01X6085Y14189D01*
G01X6066Y14231D01*
G01X6056Y14252D01*
G01X6045Y14273D01*
G01X6035Y14293D01*
G01X6023Y14313D01*
G01X6012Y14334D01*
G01X6001Y14353D01*
G01X5989Y14373D01*
G01X5977Y14393D01*
G01X5964Y14413D01*
G01X5951Y14432D01*
G01X5938Y14452D01*
G01X5925Y14471D01*
G01X5911Y14490D01*
G01X5897Y14509D01*
G01X5882Y14528D01*
G01X5867Y14548D01*
G01X5852Y14567D01*
G01X5836Y14585D01*
G01X5821Y14604D01*
G01X5804Y14623D01*
G01X5788Y14642D01*
G01X5771Y14661D01*
G01X5753Y14679D01*
G01X5736Y14698D01*
G01X5718Y14717D01*
G01X5699Y14736D01*
G01X5681Y14754D01*
G01X5660Y14774D01*
G01X5640Y14793D01*
G01X5620Y14812D01*
G01X5600Y14831D01*
G01X5580Y14849D01*
G01X5560Y14867D01*
G01X5540Y14884D01*
G01X5520Y14901D01*
G01X5500Y14917D01*
G01X5480Y14933D01*
G01X5460Y14948D01*
G01X5440Y14963D01*
G01X5420Y14978D01*
G01X5400Y14993D01*
G01X5380Y15007D01*
G01X5360Y15020D01*
G01X5339Y15033D01*
G01X5319Y15046D01*
G01X5299Y15059D01*
G01X5279Y15071D01*
G01X5258Y15082D01*
G01X5238Y15094D01*
G01X5217Y15104D01*
G01X5196Y15115D01*
G01X5176Y15125D01*
G01X5155Y15135D01*
G01X5134Y15144D01*
G01X5113Y15153D01*
G01X5091Y15162D01*
G01X5070Y15170D01*
G01X5048Y15178D01*
G01X5027Y15186D01*
G01X5005Y15193D01*
G01X4982Y15200D01*
G01X4960Y15207D01*
G01X4938Y15213D01*
G01X4915Y15219D01*
G01X4893Y15225D01*
G01X4870Y15230D01*
G01X4847Y15235D01*
G01X4823Y15240D01*
G01X4800Y15244D01*
G01X4776Y15248D01*
G01X4752Y15252D01*
G01X4727Y15255D01*
G01X4703Y15258D01*
G01X4678Y15261D01*
G01X4653Y15264D01*
G01X4627Y15266D01*
G01X4602Y15268D01*
G01X4576Y15269D01*
G01X4550Y15271D01*
G01X4523Y15272D01*
G01X4497Y15272D01*
G01X4469Y15273D01*
G01X4442Y15273D01*
G01X4416Y15273D01*
G01X4390Y15273D01*
G01X4365Y15271D01*
G01X4339Y15271D01*
G01X4314Y15269D01*
G01X4289Y15267D01*
G01X4263Y15265D01*
G01X4238Y15263D01*
G01X4189Y15257D01*
G01X4164Y15253D01*
G01X4139Y15249D01*
G01X4115Y15245D01*
G01X4091Y15240D01*
G01X4067Y15236D01*
G01X4043Y15230D01*
G01X4019Y15225D01*
G01X3995Y15219D01*
G01X3971Y15213D01*
G01X3948Y15206D01*
G01X3924Y15199D01*
G01X3901Y15192D01*
G01X3878Y15184D01*
G01X3855Y15176D01*
G01X3832Y15168D01*
G01X3810Y15160D01*
G01X3787Y15151D01*
G01X3764Y15142D01*
G01X3742Y15132D01*
G01X3720Y15122D01*
G01X3698Y15112D01*
G01X3676Y15101D01*
G01X3654Y15090D01*
G01X3632Y15079D01*
G01X3611Y15067D01*
G01X3590Y15056D01*
G01X3547Y15031D01*
G01X3527Y15018D01*
G01X3506Y15005D01*
G01X3485Y14991D01*
G01X3464Y14977D01*
G01X3444Y14963D01*
G01X3424Y14948D01*
G01X3404Y14934D01*
G01X3384Y14918D01*
G01X3364Y14903D01*
G01X3344Y14887D01*
G01X3325Y14871D01*
G01X3306Y14854D01*
G01X3286Y14837D01*
G01X3267Y14820D01*
G01X3250Y14804D01*
G01X3215Y14771D01*
G01X3199Y14755D01*
G01X3182Y14738D01*
G01X3166Y14721D01*
G01X3150Y14703D01*
G01X3134Y14686D01*
G01X3118Y14669D01*
G01X3103Y14651D01*
G01X3073Y14616D01*
G01X3059Y14598D01*
G01X3044Y14580D01*
G01X3030Y14561D01*
G01X3016Y14543D01*
G01X3003Y14524D01*
G01X2976Y14487D01*
G01X2964Y14468D01*
G01X2951Y14449D01*
G01X2939Y14429D01*
G01X2914Y14390D01*
G01X2903Y14371D01*
G01X2892Y14351D01*
G01X2881Y14331D01*
G01X2870Y14311D01*
G01X2859Y14291D01*
G01X2849Y14271D01*
G01X2839Y14250D01*
G01X2829Y14230D01*
G01X2819Y14209D01*
G01X2810Y14188D01*
G01X2801Y14167D01*
G01X2792Y14146D01*
G01X2783Y14125D01*
G01X2775Y14104D01*
G01X2767Y14082D01*
G01X2759Y14061D01*
G01X2752Y14040D01*
G01X2744Y14018D01*
G01X2737Y13996D01*
G01X2730Y13974D01*
G01X2724Y13952D01*
G01X2711Y13907D01*
G01X2706Y13885D01*
G01X2700Y13863D01*
G01X2695Y13840D01*
G01X2690Y13817D01*
G01X2685Y13795D01*
G01X2681Y13772D01*
G01X2676Y13749D01*
G01X2672Y13726D01*
G01X2668Y13703D01*
G01X2665Y13679D01*
G01X2662Y13656D01*
G01X2659Y13632D01*
G01X2656Y13609D01*
G01X2654Y13585D01*
G01X2652Y13562D01*
G01X2650Y13538D01*
G01X2648Y13514D01*
G01X2647Y13490D01*
G01X2646Y13466D01*
G01X2645Y13442D01*
G01X2644Y13417D01*
G01X2644Y13393D01*
G01X2644Y13369D01*
G01X2644Y13344D01*
G01X2644Y13320D01*
G01X2645Y13295D01*
G01X2646Y13270D01*
G01X2647Y13246D01*
G01X2649Y13221D01*
G01X2651Y13196D01*
G01X2653Y13171D01*
G01X2655Y13146D01*
G01X2658Y13121D01*
G01X2661Y13095D01*
G01X2664Y13070D01*
G01X2667Y13045D01*
G01X2671Y13019D01*
G01X2675Y12994D01*
G01X2679Y12968D01*
G01X2684Y12943D01*
G01X2688Y12917D01*
G01X2693Y12891D01*
G01X2698Y12865D01*
G01X2704Y12840D01*
G01X2710Y12814D01*
G01X2715Y12792D01*
G01X2721Y12769D01*
G01X2726Y12748D01*
G01X2732Y12726D01*
G01X2739Y12704D01*
G01X2745Y12682D01*
G01X2752Y12661D01*
G01X2759Y12640D01*
G01X2766Y12618D01*
G01X2773Y12597D01*
G01X2781Y12576D01*
G01X2789Y12555D01*
G01X2798Y12534D01*
G01X2806Y12513D01*
G01X2815Y12492D01*
G01X2824Y12471D01*
G01X2834Y12451D01*
G01X2843Y12430D01*
G01X2853Y12409D01*
G01X2864Y12389D01*
G01X2874Y12368D01*
G01X2885Y12348D01*
G01X2896Y12328D01*
G01X2908Y12307D01*
G01X2920Y12287D01*
G01X2932Y12267D01*
G01X2944Y12246D01*
G01X2957Y12226D01*
G01X2970Y12206D01*
G01X2983Y12186D01*
G01X2997Y12165D01*
G01X3011Y12145D01*
G01X3025Y12125D01*
G01X3040Y12105D01*
G01X3055Y12084D01*
G01X3070Y12064D01*
G01X3086Y12044D01*
G01X3102Y12023D01*
G01X3118Y12003D01*
G01X3135Y11983D01*
G01X3152Y11963D01*
G01X3169Y11942D01*
G01X3186Y11922D01*
G01X3205Y11901D01*
G01X3223Y11880D01*
G01X3242Y11860D01*
G01X3261Y11839D01*
G01X3280Y11819D01*
G01X3300Y11798D01*
G01X3320Y11777D01*
G01X3341Y11756D01*
G01X3362Y11735D01*
G01X3383Y11713D01*
G01X3405Y11692D01*
G01X3427Y11671D01*
G01X3450Y11650D01*
G01X3467Y11634D01*
G01X3485Y11617D01*
G01X3503Y11600D01*
G01X3523Y11583D01*
G01X3543Y11565D01*
G01X3564Y11548D01*
G01X3585Y11529D01*
G01X3607Y11511D01*
G01X3630Y11492D01*
G01X3653Y11473D01*
G01X3677Y11454D01*
G01X3701Y11435D01*
G01X3725Y11416D01*
G01X3749Y11397D01*
G01X3774Y11378D01*
G01X3824Y11339D01*
G01X3874Y11301D01*
G01X3899Y11282D01*
G01X3924Y11264D01*
G01X3950Y11245D01*
G01X3974Y11227D01*
G01X3999Y11209D01*
G01X4023Y11192D01*
G01X4048Y11175D01*
G01X4072Y11158D01*
G01X4095Y11142D01*
G01X4118Y11126D01*
G01X4141Y11110D01*
G01X4163Y11096D01*
G01X4184Y11081D01*
G01X4205Y11067D01*
G01X4225Y11055D01*
G01X4245Y11042D01*
G01X4264Y11030D01*
G01X4281Y11019D01*
G01X4299Y11009D01*
G01X4315Y11000D01*
G01X4330Y10992D01*
G01X4344Y10984D01*
G01X4357Y10977D01*
G01X4370Y10971D01*
G01X4381Y10967D01*
G01X4390Y10963D01*
G01X4399Y10960D01*
G01X4406Y10959D01*
G37*

%LPD*%
G36*
G01X2043Y4632D02*
G01X2011Y4630D01*
G01X1983Y4631D01*
G01X1959Y4634D01*
G01X1938Y4638D01*
G01X1920Y4643D01*
G01X1905Y4649D01*
G01X1893Y4657D01*
G01X1885Y4665D01*
G01X1881Y4674D01*
G01X1879Y4684D01*
G01X1881Y4694D01*
G01X1887Y4704D01*
G01X1896Y4714D01*
G01X1909Y4724D01*
G01X1926Y4734D01*
G01X1946Y4744D01*
G01X1970Y4753D01*
G01X2059Y4785D01*
G01X1970Y4809D01*
G01X1951Y4814D01*
G01X1935Y4819D01*
G01X1921Y4826D01*
G01X1910Y4833D01*
G01X1902Y4842D01*
G01X1895Y4854D01*
G01X1890Y4868D01*
G01X1886Y4886D01*
G01X1884Y4907D01*
G01X1883Y4932D01*
G01X1883Y4963D01*
G01X1884Y4999D01*
G01X1884Y5032D01*
G01X1886Y5061D01*
G01X1888Y5085D01*
G01X1890Y5105D01*
G01X1893Y5119D01*
G01X1896Y5128D01*
G01X1899Y5130D01*
G01X1902Y5125D01*
G01X1918Y5110D01*
G01X1947Y5097D01*
G01X1985Y5088D01*
G01X2030Y5085D01*
G01X2073Y5082D01*
G01X2108Y5075D01*
G01X2132Y5065D01*
G01X2140Y5052D01*
G01X2131Y5040D01*
G01X2107Y5030D01*
G01X2071Y5023D01*
G01X2027Y5020D01*
G01X1999Y5019D01*
G01X1976Y5017D01*
G01X1956Y5013D01*
G01X1940Y5008D01*
G01X1928Y5001D01*
G01X1920Y4993D01*
G01X1915Y4983D01*
G01X1913Y4971D01*
G01X1915Y4959D01*
G01X1920Y4949D01*
G01X1928Y4941D01*
G01X1940Y4934D01*
G01X1956Y4929D01*
G01X1976Y4925D01*
G01X1999Y4923D01*
G01X2027Y4923D01*
G01X2055Y4921D01*
G01X2079Y4919D01*
G01X2100Y4915D01*
G01X2116Y4909D01*
G01X2128Y4902D01*
G01X2137Y4895D01*
G01X2140Y4887D01*
G01X2139Y4878D01*
G01X2133Y4870D01*
G01X2122Y4862D01*
G01X2106Y4855D01*
G01X2084Y4848D01*
G01X2053Y4839D01*
G01X2043Y4834D01*
G01X2053Y4831D01*
G01X2084Y4829D01*
G01X2110Y4825D01*
G01X2127Y4816D01*
G01X2137Y4804D01*
G01X2138Y4790D01*
G01X2132Y4775D01*
G01X2118Y4759D01*
G01X2096Y4743D01*
G01X2068Y4729D01*
G01X1994Y4700D01*
G01X2068Y4698D01*
G01X2096Y4695D01*
G01X2118Y4691D01*
G01X2132Y4686D01*
G01X2140Y4678D01*
G01X2142Y4671D01*
G01X2138Y4663D01*
G01X2129Y4655D01*
G01X2114Y4647D01*
G01X2094Y4640D01*
G01X2071Y4635D01*
G01X2043Y4632D01*
G37*

%LPC*%

%LPD*%
G36*
G01X9668Y6188D02*
G01X7754Y6188D01*
G01X7754Y6544D01*
G01X8984Y6561D01*
G01X8369Y6850D01*
G01X7754Y7138D01*
G01X7754Y7616D01*
G01X9668Y7616D01*
G01X9668Y7260D01*
G01X8390Y7242D01*
G01X9668Y6659D01*
G01X9668Y6188D01*
G37*

%LPC*%

%LPD*%
G36*
G01X4639Y6675D02*
G01X4087Y6675D01*
G01X4087Y7194D01*
G01X3568Y7194D01*
G01X3568Y7746D01*
G01X4085Y7746D01*
G01X4094Y8013D01*
G01X4104Y8281D01*
G01X4623Y8281D01*
G01X4632Y8013D01*
G01X4642Y7746D01*
G01X5191Y7746D01*
G01X5191Y7194D01*
G01X4639Y7194D01*
G01X4639Y6675D01*
G37*

%LPC*%

%LPD*%
G36*
G01X8078Y7940D02*
G01X7754Y7940D01*
G01X7754Y9206D01*
G01X8078Y9206D01*
G01X8078Y8784D01*
G01X9344Y8784D01*
G01X9344Y9206D01*
G01X9668Y9206D01*
G01X9668Y7940D01*
G01X9344Y7940D01*
G01X9344Y8362D01*
G01X8078Y8362D01*
G01X8078Y7940D01*
G37*

%LPC*%

%LPD*%
G36*
G01X8427Y9530D02*
G01X7754Y9530D01*
G01X7754Y9913D01*
G01X8460Y9925D01*
G01X8516Y9926D01*
G01X8570Y9927D01*
G01X8621Y9928D01*
G01X8670Y9929D01*
G01X8717Y9930D01*
G01X8761Y9931D01*
G01X8802Y9933D01*
G01X8842Y9934D01*
G01X8879Y9936D01*
G01X8914Y9937D01*
G01X8948Y9939D01*
G01X8979Y9941D01*
G01X9009Y9943D01*
G01X9036Y9945D01*
G01X9062Y9948D01*
G01X9086Y9951D01*
G01X9109Y9954D01*
G01X9130Y9957D01*
G01X9150Y9961D01*
G01X9168Y9965D01*
G01X9185Y9969D01*
G01X9200Y9973D01*
G01X9214Y9978D01*
G01X9228Y9983D01*
G01X9240Y9989D01*
G01X9251Y9995D01*
G01X9262Y10001D01*
G01X9271Y10008D01*
G01X9280Y10015D01*
G01X9288Y10023D01*
G01X9295Y10031D01*
G01X9302Y10039D01*
G01X9308Y10048D01*
G01X9314Y10058D01*
G01X9319Y10068D01*
G01X9325Y10079D01*
G01X9330Y10090D01*
G01X9334Y10102D01*
G01X9339Y10115D01*
G01X9344Y10128D01*
G01X9352Y10153D01*
G01X9357Y10179D01*
G01X9361Y10206D01*
G01X9363Y10232D01*
G01X9363Y10259D01*
G01X9361Y10286D01*
G01X9358Y10312D01*
G01X9353Y10338D01*
G01X9346Y10363D01*
G01X9338Y10387D01*
G01X9327Y10410D01*
G01X9316Y10432D01*
G01X9303Y10453D01*
G01X9288Y10472D01*
G01X9272Y10489D01*
G01X9255Y10504D01*
G01X9248Y10509D01*
G01X9240Y10515D01*
G01X9233Y10519D01*
G01X9226Y10524D01*
G01X9218Y10528D01*
G01X9210Y10532D01*
G01X9201Y10536D01*
G01X9192Y10539D01*
G01X9181Y10542D01*
G01X9170Y10546D01*
G01X9158Y10548D01*
G01X9144Y10551D01*
G01X9130Y10553D01*
G01X9114Y10555D01*
G01X9097Y10557D01*
G01X9077Y10559D01*
G01X9057Y10560D01*
G01X9034Y10561D01*
G01X9010Y10563D01*
G01X8983Y10564D01*
G01X8954Y10565D01*
G01X8923Y10565D01*
G01X8890Y10566D01*
G01X8854Y10567D01*
G01X8816Y10567D01*
G01X8775Y10568D01*
G01X8730Y10568D01*
G01X8683Y10568D01*
G01X8633Y10568D01*
G01X8580Y10568D01*
G01X8523Y10569D01*
G01X7754Y10569D01*
G01X7754Y10990D01*
G01X8443Y10990D01*
G01X8493Y10990D01*
G01X8540Y10990D01*
G01X8586Y10990D01*
G01X8631Y10990D01*
G01X8673Y10989D01*
G01X8714Y10989D01*
G01X8753Y10988D01*
G01X8790Y10988D01*
G01X8827Y10987D01*
G01X8861Y10986D01*
G01X8894Y10985D01*
G01X8926Y10984D01*
G01X8956Y10982D01*
G01X8985Y10981D01*
G01X9014Y10980D01*
G01X9040Y10978D01*
G01X9066Y10976D01*
G01X9090Y10974D01*
G01X9114Y10971D01*
G01X9136Y10969D01*
G01X9157Y10967D01*
G01X9177Y10963D01*
G01X9197Y10961D01*
G01X9215Y10957D01*
G01X9233Y10954D01*
G01X9250Y10950D01*
G01X9267Y10946D01*
G01X9282Y10942D01*
G01X9297Y10938D01*
G01X9311Y10933D01*
G01X9325Y10928D01*
G01X9338Y10923D01*
G01X9351Y10918D01*
G01X9364Y10912D01*
G01X9376Y10906D01*
G01X9387Y10900D01*
G01X9399Y10894D01*
G01X9410Y10887D01*
G01X9421Y10880D01*
G01X9431Y10872D01*
G01X9442Y10864D01*
G01X9453Y10856D01*
G01X9463Y10848D01*
G01X9474Y10839D01*
G01X9493Y10822D01*
G01X9512Y10805D01*
G01X9530Y10787D01*
G01X9546Y10769D01*
G01X9561Y10751D01*
G01X9576Y10732D01*
G01X9589Y10713D01*
G01X9601Y10693D01*
G01X9613Y10673D01*
G01X9623Y10651D01*
G01X9633Y10629D01*
G01X9642Y10606D01*
G01X9650Y10582D01*
G01X9658Y10557D01*
G01X9664Y10531D01*
G01X9671Y10503D01*
G01X9676Y10475D01*
G01X9681Y10445D01*
G01X9685Y10413D01*
G01X9689Y10380D01*
G01X9692Y10354D01*
G01X9693Y10328D01*
G01X9694Y10301D01*
G01X9694Y10276D01*
G01X9694Y10250D01*
G01X9693Y10224D01*
G01X9691Y10199D01*
G01X9689Y10174D01*
G01X9686Y10149D01*
G01X9682Y10125D01*
G01X9677Y10101D01*
G01X9672Y10077D01*
G01X9667Y10053D01*
G01X9661Y10030D01*
G01X9654Y10007D01*
G01X9646Y9985D01*
G01X9638Y9963D01*
G01X9630Y9941D01*
G01X9620Y9920D01*
G01X9610Y9899D01*
G01X9600Y9879D01*
G01X9589Y9859D01*
G01X9578Y9840D01*
G01X9566Y9821D01*
G01X9553Y9802D01*
G01X9540Y9784D01*
G01X9527Y9767D01*
G01X9513Y9750D01*
G01X9498Y9734D01*
G01X9483Y9718D01*
G01X9467Y9703D01*
G01X9451Y9688D01*
G01X9435Y9674D01*
G01X9418Y9661D01*
G01X9400Y9648D01*
G01X9382Y9636D01*
G01X9364Y9625D01*
G01X9345Y9614D01*
G01X9326Y9604D01*
G01X9307Y9595D01*
G01X9287Y9586D01*
G01X9266Y9578D01*
G01X9246Y9571D01*
G01X9225Y9565D01*
G01X9217Y9563D01*
G01X9208Y9561D01*
G01X9198Y9560D01*
G01X9186Y9558D01*
G01X9172Y9556D01*
G01X9157Y9555D01*
G01X9141Y9553D01*
G01X9123Y9551D01*
G01X9105Y9550D01*
G01X9085Y9548D01*
G01X9063Y9547D01*
G01X9041Y9546D01*
G01X9017Y9544D01*
G01X8993Y9543D01*
G01X8967Y9542D01*
G01X8940Y9540D01*
G01X8913Y9539D01*
G01X8885Y9538D01*
G01X8856Y9537D01*
G01X8826Y9536D01*
G01X8796Y9535D01*
G01X8764Y9534D01*
G01X8732Y9534D01*
G01X8700Y9533D01*
G01X8667Y9532D01*
G01X8634Y9532D01*
G01X8600Y9532D01*
G01X8566Y9531D01*
G01X8532Y9531D01*
G01X8462Y9530D01*
G01X8427Y9530D01*
G37*

%LPC*%

%LPD*%
G36*
G01X8701Y11157D02*
G01X8674Y11157D01*
G01X8647Y11158D01*
G01X8621Y11159D01*
G01X8593Y11161D01*
G01X8567Y11163D01*
G01X8540Y11165D01*
G01X8513Y11169D01*
G01X8487Y11172D01*
G01X8461Y11176D01*
G01X8435Y11180D01*
G01X8409Y11185D01*
G01X8384Y11190D01*
G01X8359Y11196D01*
G01X8334Y11202D01*
G01X8310Y11209D01*
G01X8286Y11216D01*
G01X8263Y11223D01*
G01X8240Y11231D01*
G01X8218Y11239D01*
G01X8197Y11248D01*
G01X8176Y11257D01*
G01X8156Y11267D01*
G01X8136Y11276D01*
G01X8118Y11286D01*
G01X8100Y11296D01*
G01X8082Y11307D01*
G01X8065Y11317D01*
G01X8048Y11328D01*
G01X8032Y11339D01*
G01X8017Y11350D01*
G01X8002Y11361D01*
G01X7988Y11373D01*
G01X7974Y11386D01*
G01X7961Y11398D01*
G01X7948Y11411D01*
G01X7935Y11425D01*
G01X7923Y11438D01*
G01X7912Y11453D01*
G01X7901Y11467D01*
G01X7891Y11483D01*
G01X7881Y11498D01*
G01X7871Y11515D01*
G01X7862Y11531D01*
G01X7853Y11548D01*
G01X7845Y11566D01*
G01X7837Y11584D01*
G01X7830Y11603D01*
G01X7823Y11623D01*
G01X7816Y11643D01*
G01X7810Y11664D01*
G01X7804Y11686D01*
G01X7798Y11707D01*
G01X7793Y11730D01*
G01X7789Y11754D01*
G01X7784Y11778D01*
G01X7780Y11803D01*
G01X7776Y11830D01*
G01X7773Y11856D01*
G01X7769Y11884D01*
G01X7767Y11912D01*
G01X7764Y11941D01*
G01X7762Y11971D01*
G01X7760Y12002D01*
G01X7758Y12034D01*
G01X7757Y12067D01*
G01X7756Y12100D01*
G01X7755Y12135D01*
G01X7755Y12171D01*
G01X7754Y12207D01*
G01X7754Y12245D01*
G01X7754Y12645D01*
G01X9677Y12645D01*
G01X9662Y12224D01*
G01X9660Y12177D01*
G01X9658Y12134D01*
G01X9657Y12094D01*
G01X9655Y12056D01*
G01X9653Y12022D01*
G01X9651Y11990D01*
G01X9649Y11960D01*
G01X9646Y11932D01*
G01X9644Y11907D01*
G01X9641Y11882D01*
G01X9638Y11860D01*
G01X9634Y11839D01*
G01X9630Y11819D01*
G01X9626Y11800D01*
G01X9621Y11781D01*
G01X9616Y11763D01*
G01X9610Y11746D01*
G01X9603Y11728D01*
G01X9597Y11711D01*
G01X9589Y11693D01*
G01X9581Y11675D01*
G01X9572Y11656D01*
G01X9562Y11636D01*
G01X9551Y11615D01*
G01X9540Y11594D01*
G01X9528Y11573D01*
G01X9517Y11553D01*
G01X9504Y11534D01*
G01X9491Y11514D01*
G01X9477Y11496D01*
G01X9463Y11477D01*
G01X9448Y11459D01*
G01X9433Y11442D01*
G01X9418Y11426D01*
G01X9402Y11409D01*
G01X9385Y11393D01*
G01X9368Y11378D01*
G01X9351Y11363D01*
G01X9333Y11349D01*
G01X9315Y11335D01*
G01X9296Y11322D01*
G01X9277Y11309D01*
G01X9257Y11296D01*
G01X9237Y11285D01*
G01X9217Y11273D01*
G01X9196Y11263D01*
G01X9174Y11252D01*
G01X9152Y11242D01*
G01X9130Y11233D01*
G01X9107Y11225D01*
G01X9084Y11216D01*
G01X9061Y11209D01*
G01X9037Y11201D01*
G01X9012Y11195D01*
G01X8988Y11189D01*
G01X8962Y11183D01*
G01X8938Y11178D01*
G01X8912Y11174D01*
G01X8887Y11170D01*
G01X8861Y11167D01*
G01X8835Y11164D01*
G01X8808Y11162D01*
G01X8782Y11160D01*
G01X8755Y11159D01*
G01X8728Y11158D01*
G01X8701Y11157D01*
G37*

%LPC*%
G36*
G01X8661Y11595D02*
G01X8693Y11595D01*
G01X8725Y11595D01*
G01X8756Y11596D01*
G01X8786Y11598D01*
G01X8815Y11600D01*
G01X8843Y11602D01*
G01X8871Y11605D01*
G01X8897Y11609D01*
G01X8923Y11613D01*
G01X8948Y11618D01*
G01X8972Y11623D01*
G01X8994Y11630D01*
G01X9017Y11636D01*
G01X9038Y11643D01*
G01X9059Y11651D01*
G01X9078Y11660D01*
G01X9097Y11669D01*
G01X9115Y11679D01*
G01X9132Y11689D01*
G01X9148Y11700D01*
G01X9164Y11712D01*
G01X9178Y11724D01*
G01X9192Y11737D01*
G01X9206Y11751D01*
G01X9218Y11765D01*
G01X9229Y11780D01*
G01X9240Y11795D01*
G01X9250Y11811D01*
G01X9259Y11828D01*
G01X9268Y11846D01*
G01X9275Y11864D01*
G01X9282Y11883D01*
G01X9288Y11903D01*
G01X9294Y11923D01*
G01X9298Y11944D01*
G01X9302Y11966D01*
G01X9306Y11988D01*
G01X9308Y12012D01*
G01X9310Y12036D01*
G01X9311Y12060D01*
G01X9311Y12085D01*
G01X9311Y12256D01*
G01X8078Y12256D01*
G01X8078Y12102D01*
G01X8079Y12080D01*
G01X8081Y12057D01*
G01X8083Y12033D01*
G01X8086Y12009D01*
G01X8090Y11984D01*
G01X8095Y11959D01*
G01X8101Y11936D01*
G01X8107Y11912D01*
G01X8113Y11890D01*
G01X8120Y11869D01*
G01X8128Y11851D01*
G01X8135Y11834D01*
G01X8144Y11817D01*
G01X8154Y11800D01*
G01X8165Y11784D01*
G01X8176Y11769D01*
G01X8188Y11754D01*
G01X8201Y11740D01*
G01X8214Y11727D01*
G01X8229Y11715D01*
G01X8244Y11703D01*
G01X8260Y11691D01*
G01X8277Y11681D01*
G01X8294Y11671D01*
G01X8312Y11661D01*
G01X8331Y11653D01*
G01X8351Y11644D01*
G01X8372Y11637D01*
G01X8394Y11630D01*
G01X8417Y11624D01*
G01X8440Y11619D01*
G01X8464Y11614D01*
G01X8490Y11609D01*
G01X8516Y11605D01*
G01X8543Y11602D01*
G01X8571Y11600D01*
G01X8600Y11598D01*
G01X8630Y11596D01*
G01X8661Y11595D01*
G37*

%LPD*%
G36*
G01X4574Y12321D02*
G01X4152Y12321D01*
G01X4152Y14300D01*
G01X4574Y14300D01*
G01X4574Y12321D01*
G37*

%LPC*%

%LPD*%
G36*
G01X9668Y13284D02*
G01X9668Y12807D01*
G01X9303Y12990D01*
G01X9273Y13005D01*
G01X9243Y13020D01*
G01X9213Y13035D01*
G01X9184Y13051D01*
G01X9155Y13065D01*
G01X9126Y13080D01*
G01X9098Y13095D01*
G01X9071Y13110D01*
G01X9044Y13124D01*
G01X9019Y13138D01*
G01X8994Y13151D01*
G01X8972Y13163D01*
G01X8950Y13175D01*
G01X8930Y13187D01*
G01X8911Y13197D01*
G01X8895Y13207D01*
G01X8880Y13216D01*
G01X8867Y13224D01*
G01X8856Y13231D01*
G01X8847Y13237D01*
G01X8811Y13261D01*
G01X8781Y13279D01*
G01X8759Y13289D01*
G01X8749Y13290D01*
G01X8742Y13278D01*
G01X8730Y13255D01*
G01X8714Y13223D01*
G01X8696Y13188D01*
G01X8685Y13169D01*
G01X8674Y13150D01*
G01X8661Y13133D01*
G01X8647Y13116D01*
G01X8631Y13101D01*
G01X8615Y13086D01*
G01X8597Y13071D01*
G01X8579Y13058D01*
G01X8560Y13046D01*
G01X8539Y13034D01*
G01X8519Y13023D01*
G01X8497Y13013D01*
G01X8475Y13005D01*
G01X8452Y12996D01*
G01X8429Y12990D01*
G01X8405Y12984D01*
G01X8381Y12978D01*
G01X8356Y12974D01*
G01X8332Y12971D01*
G01X8307Y12969D01*
G01X8282Y12968D01*
G01X8257Y12968D01*
G01X8231Y12969D01*
G01X8206Y12971D01*
G01X8181Y12975D01*
G01X8157Y12979D01*
G01X8132Y12984D01*
G01X8108Y12991D01*
G01X8084Y12999D01*
G01X8060Y13008D01*
G01X8037Y13018D01*
G01X8015Y13029D01*
G01X7999Y13038D01*
G01X7983Y13047D01*
G01X7969Y13057D01*
G01X7955Y13066D01*
G01X7941Y13076D01*
G01X7928Y13087D01*
G01X7916Y13098D01*
G01X7905Y13109D01*
G01X7894Y13121D01*
G01X7883Y13133D01*
G01X7873Y13146D01*
G01X7864Y13160D01*
G01X7855Y13174D01*
G01X7847Y13189D01*
G01X7839Y13205D01*
G01X7831Y13222D01*
G01X7825Y13240D01*
G01X7818Y13259D01*
G01X7812Y13278D01*
G01X7806Y13299D01*
G01X7801Y13321D01*
G01X7796Y13343D01*
G01X7792Y13367D01*
G01X7788Y13392D01*
G01X7784Y13419D01*
G01X7780Y13446D01*
G01X7777Y13476D01*
G01X7774Y13506D01*
G01X7772Y13538D01*
G01X7769Y13571D01*
G01X7767Y13606D01*
G01X7765Y13643D01*
G01X7764Y13681D01*
G01X7762Y13721D01*
G01X7761Y13762D01*
G01X7760Y13805D01*
G01X7749Y14267D01*
G01X9668Y14267D01*
G01X9668Y13878D01*
G01X9175Y13878D01*
G01X9131Y13878D01*
G01X9091Y13878D01*
G01X9056Y13877D01*
G01X9026Y13876D01*
G01X8999Y13875D01*
G01X8976Y13873D01*
G01X8957Y13871D01*
G01X8940Y13869D01*
G01X8927Y13865D01*
G01X8916Y13862D01*
G01X8908Y13857D01*
G01X8901Y13852D01*
G01X8897Y13846D01*
G01X8893Y13840D01*
G01X8891Y13832D01*
G01X8890Y13824D01*
G01X8890Y13815D01*
G01X8890Y13804D01*
G01X8890Y13788D01*
G01X8892Y13773D01*
G01X8894Y13757D01*
G01X8898Y13743D01*
G01X8902Y13728D01*
G01X8909Y13714D01*
G01X8916Y13701D01*
G01X8925Y13687D01*
G01X8936Y13673D01*
G01X8948Y13660D01*
G01X8961Y13646D01*
G01X8977Y13633D01*
G01X8994Y13619D01*
G01X9013Y13605D01*
G01X9035Y13591D01*
G01X9057Y13576D01*
G01X9083Y13561D01*
G01X9110Y13546D01*
G01X9140Y13530D01*
G01X9172Y13513D01*
G01X9207Y13496D01*
G01X9244Y13478D01*
G01X9284Y13460D01*
G01X9326Y13440D01*
G01X9668Y13284D01*
G37*

%LPC*%
G36*
G01X8299Y13392D02*
G01X8327Y13392D01*
G01X8349Y13393D01*
G01X8370Y13396D01*
G01X8390Y13400D01*
G01X8409Y13406D01*
G01X8427Y13414D01*
G01X8444Y13424D01*
G01X8460Y13435D01*
G01X8475Y13448D01*
G01X8489Y13463D01*
G01X8502Y13479D01*
G01X8514Y13497D01*
G01X8524Y13516D01*
G01X8534Y13537D01*
G01X8542Y13559D01*
G01X8549Y13582D01*
G01X8555Y13607D01*
G01X8559Y13634D01*
G01X8563Y13661D01*
G01X8564Y13690D01*
G01X8565Y13720D01*
G01X8565Y13878D01*
G01X8078Y13878D01*
G01X8078Y13730D01*
G01X8079Y13699D01*
G01X8081Y13667D01*
G01X8085Y13635D01*
G01X8089Y13605D01*
G01X8095Y13576D01*
G01X8101Y13550D01*
G01X8108Y13528D01*
G01X8116Y13511D01*
G01X8128Y13488D01*
G01X8140Y13469D01*
G01X8153Y13452D01*
G01X8166Y13438D01*
G01X8180Y13426D01*
G01X8195Y13416D01*
G01X8212Y13408D01*
G01X8230Y13402D01*
G01X8251Y13397D01*
G01X8273Y13394D01*
G01X8299Y13392D01*
G37*

%LPD*%
G36*
G01X9636Y14441D02*
G01X9625Y14441D01*
G01X9612Y14443D01*
G01X9595Y14447D01*
G01X9592Y14448D01*
G01X9586Y14450D01*
G01X9580Y14451D01*
G01X9572Y14454D01*
G01X9563Y14456D01*
G01X9552Y14459D01*
G01X9540Y14463D01*
G01X9527Y14467D01*
G01X9513Y14471D01*
G01X9498Y14476D01*
G01X9481Y14481D01*
G01X9464Y14486D01*
G01X9445Y14492D01*
G01X9425Y14498D01*
G01X9405Y14504D01*
G01X9383Y14511D01*
G01X9360Y14517D01*
G01X9336Y14525D01*
G01X9312Y14532D01*
G01X9286Y14540D01*
G01X9260Y14548D01*
G01X9233Y14556D01*
G01X9206Y14564D01*
G01X9177Y14573D01*
G01X9148Y14582D01*
G01X9118Y14591D01*
G01X9087Y14601D01*
G01X9056Y14610D01*
G01X9025Y14620D01*
G01X8992Y14630D01*
G01X8960Y14640D01*
G01X8926Y14650D01*
G01X8893Y14660D01*
G01X8858Y14671D01*
G01X8824Y14682D01*
G01X8789Y14692D01*
G01X8754Y14703D01*
G01X8718Y14714D01*
G01X8682Y14725D01*
G01X8646Y14736D01*
G01X7770Y15007D01*
G01X7761Y15280D01*
G01X7752Y15555D01*
G01X8671Y15836D01*
G01X8709Y15847D01*
G01X8747Y15859D01*
G01X8784Y15870D01*
G01X8820Y15881D01*
G01X8857Y15892D01*
G01X8893Y15903D01*
G01X8928Y15914D01*
G01X8963Y15925D01*
G01X8997Y15935D01*
G01X9031Y15945D01*
G01X9064Y15955D01*
G01X9097Y15965D01*
G01X9129Y15974D01*
G01X9160Y15984D01*
G01X9191Y15993D01*
G01X9221Y16002D01*
G01X9250Y16010D01*
G01X9278Y16019D01*
G01X9306Y16027D01*
G01X9332Y16034D01*
G01X9358Y16042D01*
G01X9382Y16049D01*
G01X9406Y16056D01*
G01X9429Y16063D01*
G01X9450Y16069D01*
G01X9471Y16075D01*
G01X9490Y16080D01*
G01X9509Y16086D01*
G01X9526Y16090D01*
G01X9542Y16095D01*
G01X9557Y16099D01*
G01X9570Y16103D01*
G01X9582Y16106D01*
G01X9593Y16109D01*
G01X9603Y16111D01*
G01X9611Y16113D01*
G01X9618Y16115D01*
G01X9623Y16116D01*
G01X9627Y16117D01*
G01X9630Y16117D01*
G01X9639Y16114D01*
G01X9647Y16105D01*
G01X9653Y16090D01*
G01X9659Y16069D01*
G01X9663Y16042D01*
G01X9666Y16010D01*
G01X9668Y15972D01*
G01X9668Y15928D01*
G01X9668Y15738D01*
G01X9474Y15679D01*
G01X9279Y15620D01*
G01X9279Y14982D01*
G01X9474Y14928D01*
G01X9668Y14873D01*
G01X9668Y14651D01*
G01X9668Y14601D01*
G01X9668Y14560D01*
G01X9667Y14526D01*
G01X9665Y14499D01*
G01X9662Y14478D01*
G01X9658Y14462D01*
G01X9653Y14451D01*
G01X9646Y14444D01*
G01X9636Y14441D01*
G37*

%LPC*%
G36*
G01X8943Y15079D02*
G01X8946Y15079D01*
G01X8948Y15083D01*
G01X8950Y15096D01*
G01X8951Y15117D01*
G01X8952Y15145D01*
G01X8953Y15178D01*
G01X8954Y15217D01*
G01X8954Y15259D01*
G01X8955Y15304D01*
G01X8955Y15530D01*
G01X8865Y15501D01*
G01X8855Y15498D01*
G01X8842Y15493D01*
G01X8826Y15488D01*
G01X8808Y15483D01*
G01X8788Y15477D01*
G01X8765Y15470D01*
G01X8742Y15463D01*
G01X8717Y15455D01*
G01X8690Y15447D01*
G01X8662Y15439D01*
G01X8634Y15430D01*
G01X8605Y15421D01*
G01X8575Y15412D01*
G01X8484Y15385D01*
G01X8192Y15298D01*
G01X8565Y15188D01*
G01X8603Y15177D01*
G01X8640Y15167D01*
G01X8676Y15156D01*
G01X8710Y15146D01*
G01X8743Y15136D01*
G01X8775Y15127D01*
G01X8804Y15119D01*
G01X8831Y15111D01*
G01X8856Y15104D01*
G01X8878Y15098D01*
G01X8897Y15092D01*
G01X8914Y15087D01*
G01X8927Y15084D01*
G01X8937Y15081D01*
G01X8943Y15079D01*
G37*

%LPD*%
G54D17*
G01X136Y18009D02*
G01X900Y18300D01*
G01X136Y18009D02*
G01X900Y17717D01*
G01X646Y18190D02*
G01X646Y17827D01*
G01X136Y17369D02*
G01X755Y17369D01*
G01X864Y17332D01*
G01X900Y17259D01*
G01X900Y17186D01*
G01X390Y17478D02*
G01X390Y17223D01*
G01X136Y16838D02*
G01X755Y16838D01*
G01X864Y16802D01*
G01X900Y16728D01*
G01X900Y16655D01*
G01X390Y16946D02*
G01X390Y16692D01*
G01X136Y16415D02*
G01X172Y16380D01*
G01X136Y16344D01*
G01X100Y16380D01*
G01X136Y16415D01*
G01X390Y16380D02*
G01X900Y16380D01*
G01X390Y16103D02*
G01X900Y16103D01*
G01X536Y16103D02*
G01X427Y15994D01*
G01X390Y15921D01*
G01X390Y15813D01*
G01X427Y15740D01*
G01X536Y15703D01*
G01X900Y15703D01*
G01X390Y15426D02*
G01X900Y15209D01*
G01X390Y14990D02*
G01X900Y15209D01*
G01X1046Y15282D01*
G01X1118Y15355D01*
G01X1155Y15426D01*
G01X1155Y15463D01*
G01X1155Y14751D02*
G01X1155Y14096D01*
G01X136Y13855D02*
G01X900Y13855D01*
G01X136Y13855D02*
G01X136Y13528D01*
G01X172Y13419D01*
G01X209Y13384D01*
G01X281Y13346D01*
G01X390Y13346D01*
G01X464Y13384D01*
G01X500Y13419D01*
G01X536Y13528D01*
G01X536Y13855D01*
G01X390Y13107D02*
G01X900Y13107D01*
G01X609Y13107D02*
G01X500Y13071D01*
G01X427Y12998D01*
G01X390Y12925D01*
G01X390Y12815D01*
G01X390Y12394D02*
G01X427Y12467D01*
G01X500Y12540D01*
G01X609Y12576D01*
G01X681Y12576D01*
G01X790Y12540D01*
G01X864Y12467D01*
G01X900Y12394D01*
G01X900Y12284D01*
G01X864Y12213D01*
G01X790Y12140D01*
G01X681Y12103D01*
G01X609Y12103D01*
G01X500Y12140D01*
G01X427Y12213D01*
G01X390Y12284D01*
G01X390Y12394D01*
G01X390Y11426D02*
G01X972Y11426D01*
G01X1081Y11463D01*
G01X1118Y11500D01*
G01X1155Y11573D01*
G01X1155Y11682D01*
G01X1118Y11755D01*
G01X500Y11426D02*
G01X427Y11500D01*
G01X390Y11573D01*
G01X390Y11682D01*
G01X427Y11755D01*
G01X500Y11826D01*
G01X609Y11863D01*
G01X681Y11863D01*
G01X790Y11826D01*
G01X864Y11755D01*
G01X900Y11682D01*
G01X900Y11573D01*
G01X864Y11500D01*
G01X790Y11426D01*
G01X390Y11186D02*
G01X900Y11186D01*
G01X609Y11186D02*
G01X500Y11151D01*
G01X427Y11078D01*
G01X390Y11005D01*
G01X390Y10896D01*
G01X390Y10219D02*
G01X900Y10219D01*
G01X500Y10219D02*
G01X427Y10292D01*
G01X390Y10365D01*
G01X390Y10475D01*
G01X427Y10546D01*
G01X500Y10619D01*
G01X609Y10655D01*
G01X681Y10655D01*
G01X790Y10619D01*
G01X864Y10546D01*
G01X900Y10475D01*
G01X900Y10365D01*
G01X864Y10292D01*
G01X790Y10219D01*
G01X390Y9980D02*
G01X900Y9980D01*
G01X536Y9980D02*
G01X427Y9871D01*
G01X390Y9798D01*
G01X390Y9688D01*
G01X427Y9615D01*
G01X536Y9580D01*
G01X900Y9580D01*
G01X536Y9580D02*
G01X427Y9471D01*
G01X390Y9398D01*
G01X390Y9288D01*
G01X427Y9215D01*
G01X536Y9180D01*
G01X900Y9180D01*
G01X390Y8940D02*
G01X900Y8940D01*
G01X536Y8940D02*
G01X427Y8830D01*
G01X390Y8757D01*
G01X390Y8648D01*
G01X427Y8576D01*
G01X536Y8540D01*
G01X900Y8540D01*
G01X536Y8540D02*
G01X427Y8430D01*
G01X390Y8357D01*
G01X390Y8248D01*
G01X427Y8176D01*
G01X536Y8140D01*
G01X900Y8140D01*
G01X609Y7900D02*
G01X609Y7463D01*
G01X536Y7463D01*
G01X464Y7500D01*
G01X427Y7536D01*
G01X390Y7609D01*
G01X390Y7717D01*
G01X427Y7790D01*
G01X500Y7863D01*
G01X609Y7900D01*
G01X681Y7900D01*
G01X790Y7863D01*
G01X864Y7790D01*
G01X900Y7717D01*
G01X900Y7609D01*
G01X864Y7536D01*
G01X790Y7463D01*
G01X390Y7223D02*
G01X900Y7223D01*
G01X609Y7223D02*
G01X500Y7186D01*
G01X427Y7115D01*
G01X390Y7042D01*
G01X390Y6932D01*
G01X1155Y6692D02*
G01X1155Y6038D01*
G01X136Y5798D02*
G01X900Y5798D01*
G01X136Y5798D02*
G01X136Y5471D01*
G01X172Y5361D01*
G01X209Y5325D01*
G01X281Y5288D01*
G01X355Y5288D01*
G01X427Y5325D01*
G01X464Y5361D01*
G01X500Y5471D01*
G01X500Y5798D02*
G01X500Y5471D01*
G01X536Y5361D01*
G01X572Y5325D01*
G01X646Y5288D01*
G01X755Y5288D01*
G01X827Y5325D01*
G01X864Y5361D01*
G01X900Y5471D01*
G01X900Y5798D01*
G01X390Y4867D02*
G01X427Y4940D01*
G01X500Y5013D01*
G01X609Y5048D01*
G01X681Y5048D01*
G01X790Y5013D01*
G01X864Y4940D01*
G01X900Y4867D01*
G01X900Y4757D01*
G01X864Y4684D01*
G01X790Y4613D01*
G01X681Y4576D01*
G01X609Y4576D01*
G01X500Y4613D01*
G01X427Y4684D01*
G01X390Y4757D01*
G01X390Y4867D01*
G01X390Y3900D02*
G01X900Y3900D01*
G01X500Y3900D02*
G01X427Y3973D01*
G01X390Y4044D01*
G01X390Y4155D01*
G01X427Y4226D01*
G01X500Y4300D01*
G01X609Y4336D01*
G01X681Y4336D01*
G01X790Y4300D01*
G01X864Y4226D01*
G01X900Y4155D01*
G01X900Y4044D01*
G01X864Y3973D01*
G01X790Y3900D01*
G01X390Y3659D02*
G01X900Y3659D01*
G01X609Y3659D02*
G01X500Y3623D01*
G01X427Y3551D01*
G01X390Y3478D01*
G01X390Y3369D01*
G01X136Y2692D02*
G01X900Y2692D01*
G01X500Y2692D02*
G01X427Y2765D01*
G01X390Y2838D01*
G01X390Y2946D01*
G01X427Y3019D01*
G01X500Y3092D01*
G01X609Y3128D01*
G01X681Y3128D01*
G01X790Y3092D01*
G01X864Y3019D01*
G01X900Y2946D01*
G01X900Y2838D01*
G01X864Y2765D01*
G01X790Y2692D01*
M00*
M02*
