G04 ---------------------------- Layer name :TOP LAYER*
G04 EasyEDA v5.8.22, Sun, 13 Jan 2019 10:54:29 GMT*
G04 0d4c4f045a714df3bf040a356c4a61dc*
G04 Gerber Generator version 0.2*
G04 Scale: 100 percent, Rotated: No, Reflected: No *
G04 Dimensions in inches *
G04 leading zeros omitted , absolute positions ,2 integer and 4 decimal *
%FSLAX24Y24*%
%MOIN*%
G90*
G70D02*

%ADD11C,0.006000*%
%ADD12R,0.062000X0.062000*%
%ADD13C,0.062000*%
%ADD14C,0.060000*%
%ADD15R,0.055000X0.055000*%
%ADD16C,0.055000*%

%LPD*%
G54D11*
G01X6000Y19900D02*
G01X6000Y12400D01*
G01X7900Y10500D01*
G01X4600Y13800D02*
G01X5000Y14200D01*
G01X5000Y18900D01*
G01X4000Y19900D01*
G01X7900Y17500D02*
G01X7900Y17098D01*
G01X6600Y900D02*
G01X8301Y2601D01*
G01X8301Y16698D01*
G01X7900Y17098D01*
G01X3000Y19900D02*
G01X3000Y16400D01*
G01X4600Y14800D01*
G01X5000Y19900D02*
G01X5121Y19778D01*
G01X5121Y13321D01*
G01X4600Y12800D01*
G54D12*
G01X9000Y17499D03*
G54D13*
G01X9000Y16499D03*
G54D12*
G01X7900Y17499D03*
G54D13*
G01X7900Y16499D03*
G01X7900Y15499D03*
G01X7900Y14499D03*
G01X7900Y13499D03*
G01X7900Y12499D03*
G01X7900Y11499D03*
G01X7900Y10499D03*
G54D14*
G01X1400Y2000D03*
G01X2400Y2000D03*
G54D13*
G01X9600Y900D03*
G01X8600Y900D03*
G01X7600Y900D03*
G01X6600Y900D03*
G01X5600Y900D03*
G54D12*
G01X4600Y900D03*
G01X1000Y19900D03*
G54D13*
G01X2000Y19900D03*
G01X3000Y19900D03*
G01X4000Y19900D03*
G01X5000Y19900D03*
G01X6000Y19900D03*
G01X7000Y19900D03*
G01X8000Y19900D03*
G54D15*
G01X1600Y15799D03*
G54D16*
G01X1600Y14799D03*
G01X1600Y13799D03*
G01X1600Y12799D03*
G01X4600Y12799D03*
G01X4600Y13799D03*
G01X4600Y14799D03*
G01X4600Y15799D03*
M00*
M02*
